<?xml version="1.0" encoding="UTF-8" standalone="no"?><svg xmlns="http://www.w3.org/2000/svg" xmlns:xlink="http://www.w3.org/1999/xlink" contentStyleType="text/css" height="595px" preserveAspectRatio="none" style="width:1425px;height:595px;background:#FFFFFF;" version="1.1" viewBox="0 0 1425 595" width="1425px" zoomAndPan="magnify"><defs/><g><rect fill="#ADD8E6" height="583.7188" style="stroke:#181818;stroke-width:0.5;" width="90" x="1" y="6"/><text fill="#000000" font-family="sans-serif" font-size="13" font-weight="bold" lengthAdjust="spacing" textLength="84" x="4" y="18.0669">IoT Sensors</text><rect fill="#90EE90" height="583.7188" style="stroke:#181818;stroke-width:0.5;" width="1116.5" x="141" y="6"/><text fill="#000000" font-family="sans-serif" font-size="13" font-weight="bold" lengthAdjust="spacing" textLength="92" x="653.25" y="18.0669">Flink Cluster</text><rect fill="#FFFFE0" height="583.7188" style="stroke:#181818;stroke-width:0.5;" width="158" x="1259.5" y="6"/><text fill="#000000" font-family="sans-serif" font-size="13" font-weight="bold" lengthAdjust="spacing" textLength="152" x="1262.5" y="18.0669">Analytics Dashboard</text><rect fill="#FFFFFF" height="406.7266" style="stroke:#181818;stroke-width:1.0;" width="10" x="187.5" y="130.6953"/><rect fill="#FFFFFF" height="188.7969" style="stroke:#181818;stroke-width:1.0;" width="10" x="370.5" y="159.8281"/><rect fill="#FFFFFF" height="276.1953" style="stroke:#181818;stroke-width:1.0;" width="10" x="496.5" y="261.2266"/><rect fill="#FFFFFF" height="256.0625" style="stroke:#181818;stroke-width:1.0;" width="10" x="674" y="290.3594"/><rect fill="#FFFFFF" height="168.6641" style="stroke:#181818;stroke-width:1.0;" width="10" x="932" y="377.7578"/><rect fill="#FFFFFF" height="29.1328" style="stroke:#181818;stroke-width:1.0;" width="10" x="1191" y="319.4922"/><rect fill="#FFFFFF" height="29.1328" style="stroke:#181818;stroke-width:1.0;" width="10" x="1191" y="406.8906"/><rect fill="#FFFFFF" height="72.2656" style="stroke:#181818;stroke-width:1.0;" width="10" x="1333.5" y="465.1563"/><line style="stroke:#181818;stroke-width:0.5;stroke-dasharray:5.0,5.0;" x1="45.5" x2="45.5" y1="56.4297" y2="555.4219"/><line style="stroke:#181818;stroke-width:0.5;stroke-dasharray:5.0,5.0;" x1="192" x2="192" y1="56.4297" y2="555.4219"/><line style="stroke:#181818;stroke-width:0.5;stroke-dasharray:5.0,5.0;" x1="375.5" x2="375.5" y1="56.4297" y2="555.4219"/><line style="stroke:#181818;stroke-width:0.5;stroke-dasharray:5.0,5.0;" x1="501.5" x2="501.5" y1="56.4297" y2="555.4219"/><line style="stroke:#181818;stroke-width:0.5;stroke-dasharray:5.0,5.0;" x1="678.5" x2="678.5" y1="56.4297" y2="555.4219"/><line style="stroke:#181818;stroke-width:0.5;stroke-dasharray:5.0,5.0;" x1="937" x2="937" y1="56.4297" y2="555.4219"/><line style="stroke:#181818;stroke-width:0.5;stroke-dasharray:5.0,5.0;" x1="1195.5" x2="1195.5" y1="56.4297" y2="555.4219"/><line style="stroke:#181818;stroke-width:0.5;stroke-dasharray:5.0,5.0;" x1="1338.5" x2="1338.5" y1="56.4297" y2="555.4219"/><rect fill="#E2E2F0" height="30.2969" rx="2.5" ry="2.5" style="stroke:#181818;stroke-width:0.5;" width="63" x="14.5" y="25.1328"/><text fill="#000000" font-family="sans-serif" font-size="14" lengthAdjust="spacing" textLength="49" x="21.5" y="45.1279">Sensor</text><rect fill="#E2E2F0" height="30.2969" rx="2.5" ry="2.5" style="stroke:#181818;stroke-width:0.5;" width="63" x="14.5" y="554.4219"/><text fill="#000000" font-family="sans-serif" font-size="14" lengthAdjust="spacing" textLength="49" x="21.5" y="574.417">Sensor</text><rect fill="#E2E2F0" height="30.2969" rx="2.5" ry="2.5" style="stroke:#181818;stroke-width:0.5;" width="95" x="145" y="25.1328"/><text fill="#000000" font-family="sans-serif" font-size="14" lengthAdjust="spacing" textLength="81" x="152" y="45.1279">JobManager</text><rect fill="#E2E2F0" height="30.2969" rx="2.5" ry="2.5" style="stroke:#181818;stroke-width:0.5;" width="95" x="145" y="554.4219"/><text fill="#000000" font-family="sans-serif" font-size="14" lengthAdjust="spacing" textLength="81" x="152" y="574.417">JobManager</text><rect fill="#E2E2F0" height="30.2969" rx="2.5" ry="2.5" style="stroke:#181818;stroke-width:0.5;" width="116" x="317.5" y="25.1328"/><text fill="#000000" font-family="sans-serif" font-size="14" lengthAdjust="spacing" textLength="102" x="324.5" y="45.1279">TaskManager1</text><rect fill="#E2E2F0" height="30.2969" rx="2.5" ry="2.5" style="stroke:#181818;stroke-width:0.5;" width="116" x="317.5" y="554.4219"/><text fill="#000000" font-family="sans-serif" font-size="14" lengthAdjust="spacing" textLength="102" x="324.5" y="574.417">TaskManager1</text><rect fill="#E2E2F0" height="30.2969" rx="2.5" ry="2.5" style="stroke:#181818;stroke-width:0.5;" width="116" x="443.5" y="25.1328"/><text fill="#000000" font-family="sans-serif" font-size="14" lengthAdjust="spacing" textLength="102" x="450.5" y="45.1279">TaskManager2</text><rect fill="#E2E2F0" height="30.2969" rx="2.5" ry="2.5" style="stroke:#181818;stroke-width:0.5;" width="116" x="443.5" y="554.4219"/><text fill="#000000" font-family="sans-serif" font-size="14" lengthAdjust="spacing" textLength="102" x="450.5" y="574.417">TaskManager2</text><rect fill="#E2E2F0" height="30.2969" rx="2.5" ry="2.5" style="stroke:#181818;stroke-width:0.5;" width="219" x="569.5" y="25.1328"/><text fill="#000000" font-family="sans-serif" font-size="14" lengthAdjust="spacing" textLength="205" x="576.5" y="45.1279">Data Transformation Operator</text><rect fill="#E2E2F0" height="30.2969" rx="2.5" ry="2.5" style="stroke:#181818;stroke-width:0.5;" width="219" x="569.5" y="554.4219"/><text fill="#000000" font-family="sans-serif" font-size="14" lengthAdjust="spacing" textLength="205" x="576.5" y="574.417">Data Transformation Operator</text><rect fill="#E2E2F0" height="30.2969" rx="2.5" ry="2.5" style="stroke:#181818;stroke-width:0.5;" width="212" x="831" y="25.1328"/><text fill="#000000" font-family="sans-serif" font-size="14" lengthAdjust="spacing" textLength="198" x="838" y="45.1279">Real-Time Analytics Operator</text><rect fill="#E2E2F0" height="30.2969" rx="2.5" ry="2.5" style="stroke:#181818;stroke-width:0.5;" width="212" x="831" y="554.4219"/><text fill="#000000" font-family="sans-serif" font-size="14" lengthAdjust="spacing" textLength="198" x="838" y="574.417">Real-Time Analytics Operator</text><rect fill="#E2E2F0" height="30.2969" rx="2.5" ry="2.5" style="stroke:#181818;stroke-width:0.5;" width="115" x="1138.5" y="25.1328"/><text fill="#000000" font-family="sans-serif" font-size="14" lengthAdjust="spacing" textLength="101" x="1145.5" y="45.1279">State Backend</text><rect fill="#E2E2F0" height="30.2969" rx="2.5" ry="2.5" style="stroke:#181818;stroke-width:0.5;" width="115" x="1138.5" y="554.4219"/><text fill="#000000" font-family="sans-serif" font-size="14" lengthAdjust="spacing" textLength="101" x="1145.5" y="574.417">State Backend</text><rect fill="#E2E2F0" height="30.2969" rx="2.5" ry="2.5" style="stroke:#181818;stroke-width:0.5;" width="90" x="1293.5" y="25.1328"/><text fill="#000000" font-family="sans-serif" font-size="14" lengthAdjust="spacing" textLength="76" x="1300.5" y="45.1279">Dashboard</text><rect fill="#E2E2F0" height="30.2969" rx="2.5" ry="2.5" style="stroke:#181818;stroke-width:0.5;" width="90" x="1293.5" y="554.4219"/><text fill="#000000" font-family="sans-serif" font-size="14" lengthAdjust="spacing" textLength="76" x="1300.5" y="574.417">Dashboard</text><rect fill="#FFFFFF" height="406.7266" style="stroke:#181818;stroke-width:1.0;" width="10" x="187.5" y="130.6953"/><rect fill="#FFFFFF" height="188.7969" style="stroke:#181818;stroke-width:1.0;" width="10" x="370.5" y="159.8281"/><rect fill="#FFFFFF" height="276.1953" style="stroke:#181818;stroke-width:1.0;" width="10" x="496.5" y="261.2266"/><rect fill="#FFFFFF" height="256.0625" style="stroke:#181818;stroke-width:1.0;" width="10" x="674" y="290.3594"/><rect fill="#FFFFFF" height="168.6641" style="stroke:#181818;stroke-width:1.0;" width="10" x="932" y="377.7578"/><rect fill="#FFFFFF" height="29.1328" style="stroke:#181818;stroke-width:1.0;" width="10" x="1191" y="319.4922"/><rect fill="#FFFFFF" height="29.1328" style="stroke:#181818;stroke-width:1.0;" width="10" x="1191" y="406.8906"/><rect fill="#FFFFFF" height="72.2656" style="stroke:#181818;stroke-width:1.0;" width="10" x="1333.5" y="465.1563"/><rect fill="#EEEEEE" height="3" style="stroke:#EEEEEE;stroke-width:1.0;" width="1418.5" x="0" y="86.9961"/><line style="stroke:#000000;stroke-width:1.0;" x1="0" x2="1418.5" y1="86.9961" y2="86.9961"/><line style="stroke:#000000;stroke-width:1.0;" x1="0" x2="1418.5" y1="89.9961" y2="89.9961"/><rect fill="#EEEEEE" height="23.1328" style="stroke:#000000;stroke-width:2.0;" width="127" x="645.75" y="76.4297"/><text fill="#000000" font-family="sans-serif" font-size="13" font-weight="bold" lengthAdjust="spacing" textLength="108" x="651.75" y="92.4966">Data Ingestion</text><polygon fill="#181818" points="175.5,126.6953,185.5,130.6953,175.5,134.6953,179.5,130.6953" style="stroke:#181818;stroke-width:1.0;"/><line style="stroke:#181818;stroke-width:1.0;" x1="46" x2="181.5" y1="130.6953" y2="130.6953"/><text fill="#000000" font-family="sans-serif" font-size="13" lengthAdjust="spacing" textLength="113" x="53" y="125.6294">Emit Sensor Data</text><polygon fill="#181818" points="358.5,155.8281,368.5,159.8281,358.5,163.8281,362.5,159.8281" style="stroke:#181818;stroke-width:1.0;"/><line style="stroke:#181818;stroke-width:1.0;" x1="197.5" x2="364.5" y1="159.8281" y2="159.8281"/><text fill="#000000" font-family="sans-serif" font-size="13" lengthAdjust="spacing" textLength="154" x="204.5" y="154.7622">Schedule Ingestion Task</text><polygon fill="#181818" points="57,184.9609,47,188.9609,57,192.9609,53,188.9609" style="stroke:#181818;stroke-width:1.0;"/><line style="stroke:#181818;stroke-width:1.0;" x1="51" x2="369.5" y1="188.9609" y2="188.9609"/><text fill="#000000" font-family="sans-serif" font-size="13" lengthAdjust="spacing" textLength="119" x="63" y="183.895">Fetch Sensor Data</text><rect fill="#EEEEEE" height="3" style="stroke:#EEEEEE;stroke-width:1.0;" width="1418.5" x="0" y="217.5273"/><line style="stroke:#000000;stroke-width:1.0;" x1="0" x2="1418.5" y1="217.5273" y2="217.5273"/><line style="stroke:#000000;stroke-width:1.0;" x1="0" x2="1418.5" y1="220.5273" y2="220.5273"/><rect fill="#EEEEEE" height="23.1328" style="stroke:#000000;stroke-width:2.0;" width="158" x="630.25" y="206.9609"/><text fill="#000000" font-family="sans-serif" font-size="13" font-weight="bold" lengthAdjust="spacing" textLength="139" x="636.25" y="223.0278">Stream Processing</text><polygon fill="#181818" points="484.5,257.2266,494.5,261.2266,484.5,265.2266,488.5,261.2266" style="stroke:#181818;stroke-width:1.0;"/><line style="stroke:#181818;stroke-width:1.0;" x1="197.5" x2="490.5" y1="261.2266" y2="261.2266"/><text fill="#000000" font-family="sans-serif" font-size="13" lengthAdjust="spacing" textLength="165" x="204.5" y="256.1606">Schedule Processing Task</text><polygon fill="#181818" points="662,286.3594,672,290.3594,662,294.3594,666,290.3594" style="stroke:#181818;stroke-width:1.0;"/><line style="stroke:#181818;stroke-width:1.0;" x1="380.5" x2="668" y1="290.3594" y2="290.3594"/><text fill="#000000" font-family="sans-serif" font-size="13" lengthAdjust="spacing" textLength="134" x="387.5" y="285.2935">Assign Data Partition</text><polygon fill="#181818" points="1179,315.4922,1189,319.4922,1179,323.4922,1183,319.4922" style="stroke:#181818;stroke-width:1.0;"/><line style="stroke:#181818;stroke-width:1.0;" x1="684" x2="1185" y1="319.4922" y2="319.4922"/><text fill="#000000" font-family="sans-serif" font-size="13" lengthAdjust="spacing" textLength="185" x="691" y="314.4263">Check Previous Sensor State</text><polygon fill="#181818" points="695,344.625,685,348.625,695,352.625,691,348.625" style="stroke:#181818;stroke-width:1.0;"/><line style="stroke:#181818;stroke-width:1.0;stroke-dasharray:2.0,2.0;" x1="689" x2="1195" y1="348.625" y2="348.625"/><text fill="#000000" font-family="sans-serif" font-size="13" lengthAdjust="spacing" textLength="81" x="701" y="343.5591">Return State</text><polygon fill="#181818" points="920,373.7578,930,377.7578,920,381.7578,924,377.7578" style="stroke:#181818;stroke-width:1.0;"/><line style="stroke:#181818;stroke-width:1.0;" x1="684" x2="926" y1="377.7578" y2="377.7578"/><text fill="#000000" font-family="sans-serif" font-size="13" lengthAdjust="spacing" textLength="229" x="691" y="372.6919">Forward Data for Real-Time Analysis</text><polygon fill="#181818" points="1179,402.8906,1189,406.8906,1179,410.8906,1183,406.8906" style="stroke:#181818;stroke-width:1.0;"/><line style="stroke:#181818;stroke-width:1.0;" x1="942" x2="1185" y1="406.8906" y2="406.8906"/><text fill="#000000" font-family="sans-serif" font-size="13" lengthAdjust="spacing" textLength="230" x="949" y="401.8247">Update State with New Sensor Data</text><polygon fill="#181818" points="953,432.0234,943,436.0234,953,440.0234,949,436.0234" style="stroke:#181818;stroke-width:1.0;"/><line style="stroke:#181818;stroke-width:1.0;stroke-dasharray:2.0,2.0;" x1="947" x2="1195" y1="436.0234" y2="436.0234"/><text fill="#000000" font-family="sans-serif" font-size="13" lengthAdjust="spacing" textLength="83" x="959" y="430.9575">Acknowledge</text><polygon fill="#181818" points="1321.5,461.1563,1331.5,465.1563,1321.5,469.1563,1325.5,465.1563" style="stroke:#181818;stroke-width:1.0;"/><line style="stroke:#181818;stroke-width:1.0;" x1="942" x2="1327.5" y1="465.1563" y2="465.1563"/><text fill="#000000" font-family="sans-serif" font-size="13" lengthAdjust="spacing" textLength="196" x="949" y="460.0903">Send Real-Time Analytics Data</text><rect fill="#EEEEEE" height="3" style="stroke:#EEEEEE;stroke-width:1.0;" width="1418.5" x="0" y="493.7227"/><line style="stroke:#000000;stroke-width:1.0;" x1="0" x2="1418.5" y1="493.7227" y2="493.7227"/><line style="stroke:#000000;stroke-width:1.0;" x1="0" x2="1418.5" y1="496.7227" y2="496.7227"/><rect fill="#EEEEEE" height="23.1328" style="stroke:#000000;stroke-width:2.0;" width="156" x="631.25" y="483.1563"/><text fill="#000000" font-family="sans-serif" font-size="13" font-weight="bold" lengthAdjust="spacing" textLength="137" x="637.25" y="499.2231">Acknowledgement</text><polygon fill="#181818" points="203.5,533.4219,193.5,537.4219,203.5,541.4219,199.5,537.4219" style="stroke:#181818;stroke-width:1.0;"/><line style="stroke:#181818;stroke-width:1.0;" x1="197.5" x2="1337.5" y1="537.4219" y2="537.4219"/><text fill="#000000" font-family="sans-serif" font-size="13" lengthAdjust="spacing" textLength="134" x="209.5" y="532.356">Acknowledge Receipt</text><!--MD5=[d4a6d077b186ceb67a9f92564cc4df6f]
@startuml
box "IoT Sensors" #LightBlue
  participant "Sensor" as A
end box

box "Flink Cluster" #LightGreen
  participant "JobManager" as B
  participant "TaskManager1" as C1
  participant "TaskManager2" as C2
  participant "Data Transformation Operator" as D1
  participant "Real-Time Analytics Operator" as D2
  participant "State Backend" as F
end box

box "Analytics Dashboard" #LightYellow
  participant "Dashboard" as E
end box

== Data Ingestion ==
A -> B: Emit Sensor Data
activate B
B -> C1: Schedule Ingestion Task
activate C1
C1 -> A: Fetch Sensor Data

== Stream Processing ==
B -> C2: Schedule Processing Task
activate C2
C1 -> D1: Assign Data Partition
activate D1
D1 -> F: Check Previous Sensor State
activate F
F - -> D1: Return State
deactivate F
deactivate C1

D1 -> D2: Forward Data for Real-Time Analysis
activate D2
D2 -> F: Update State with New Sensor Data
activate F
F - -> D2: Acknowledge
deactivate F
D2 -> E: Send Real-Time Analytics Data
activate E

== Acknowledgement ==
E -> B: Acknowledge Receipt
deactivate B
deactivate E

deactivate C2
@enduml

PlantUML version 1.2022.7(Mon Aug 22 17:01:30 UTC 2022)
(GPL source distribution)
Java Runtime: OpenJDK Runtime Environment
JVM: OpenJDK 64-Bit Server VM
Default Encoding: UTF-8
Language: en
Country: null
--></g></svg>