<?xml version="1.0" encoding="UTF-8" standalone="no"?><svg xmlns="http://www.w3.org/2000/svg" xmlns:xlink="http://www.w3.org/1999/xlink" contentStyleType="text/css" height="727px" preserveAspectRatio="none" style="width:1800px;height:727px;background:#FFFFFF;" version="1.1" viewBox="0 0 1800 727" width="1800px" zoomAndPan="magnify"><defs/><g><rect fill="#ADD8E6" height="715.1172" style="stroke:#181818;stroke-width:0.5;" width="131" x="1" y="6"/><text fill="#000000" font-family="sans-serif" font-size="13" font-weight="bold" lengthAdjust="spacing" textLength="125" x="4" y="18.0669">User Interactions</text><rect fill="#FFB6C1" height="715.1172" style="stroke:#181818;stroke-width:0.5;" width="352" x="290.5" y="6"/><text fill="#000000" font-family="sans-serif" font-size="13" font-weight="bold" lengthAdjust="spacing" textLength="160" x="386.5" y="18.0669">E-commerce Platform</text><rect fill="#90EE90" height="715.1172" style="stroke:#181818;stroke-width:0.5;" width="1148" x="644.5" y="6"/><text fill="#000000" font-family="sans-serif" font-size="13" font-weight="bold" lengthAdjust="spacing" textLength="92" x="1172.5" y="18.0669">Flink Cluster</text><rect fill="#FFFFFF" height="538.125" style="stroke:#181818;stroke-width:1.0;" width="10" x="334" y="130.6953"/><rect fill="#FFFFFF" height="29.1328" style="stroke:#181818;stroke-width:1.0;" width="10" x="539" y="610.5547"/><rect fill="#FFFFFF" height="59.1328" style="stroke:#181818;stroke-width:1.0;" width="10" x="688" y="202.9609"/><rect fill="#FFFFFF" height="436.7266" style="stroke:#181818;stroke-width:1.0;" width="10" x="790" y="232.0938"/><rect fill="#FFFFFF" height="334.4609" style="stroke:#181818;stroke-width:1.0;" width="10" x="960" y="334.3594"/><rect fill="#FFFFFF" height="314.3281" style="stroke:#181818;stroke-width:1.0;" width="10" x="1183" y="363.4922"/><rect fill="#FFFFFF" height="183.7969" style="stroke:#181818;stroke-width:1.0;" width="10" x="1386" y="494.0234"/><rect fill="#FFFFFF" height="154.6641" style="stroke:#181818;stroke-width:1.0;" width="10" x="1556" y="523.1563"/><rect fill="#FFFFFF" height="29.1328" style="stroke:#181818;stroke-width:1.0;" width="10" x="1726" y="392.625"/><rect fill="#FFFFFF" height="29.1328" style="stroke:#181818;stroke-width:1.0;" width="10" x="1726" y="552.2891"/><line style="stroke:#181818;stroke-width:0.5;stroke-dasharray:5.0,5.0;" x1="66.5" x2="66.5" y1="56.4297" y2="686.8203"/><line style="stroke:#181818;stroke-width:0.5;stroke-dasharray:5.0,5.0;" x1="338.5" x2="338.5" y1="56.4297" y2="686.8203"/><line style="stroke:#181818;stroke-width:0.5;stroke-dasharray:5.0,5.0;" x1="543.5" x2="543.5" y1="56.4297" y2="686.8203"/><line style="stroke:#181818;stroke-width:0.5;stroke-dasharray:5.0,5.0;" x1="692.5" x2="692.5" y1="56.4297" y2="686.8203"/><line style="stroke:#181818;stroke-width:0.5;stroke-dasharray:5.0,5.0;" x1="794.5" x2="794.5" y1="56.4297" y2="686.8203"/><line style="stroke:#181818;stroke-width:0.5;stroke-dasharray:5.0,5.0;" x1="965" x2="965" y1="56.4297" y2="686.8203"/><line style="stroke:#181818;stroke-width:0.5;stroke-dasharray:5.0,5.0;" x1="1188" x2="1188" y1="56.4297" y2="686.8203"/><line style="stroke:#181818;stroke-width:0.5;stroke-dasharray:5.0,5.0;" x1="1391" x2="1391" y1="56.4297" y2="686.8203"/><line style="stroke:#181818;stroke-width:0.5;stroke-dasharray:5.0,5.0;" x1="1561" x2="1561" y1="56.4297" y2="686.8203"/><line style="stroke:#181818;stroke-width:0.5;stroke-dasharray:5.0,5.0;" x1="1730.5" x2="1730.5" y1="56.4297" y2="686.8203"/><rect fill="#E2E2F0" height="30.2969" rx="2.5" ry="2.5" style="stroke:#181818;stroke-width:0.5;" width="46" x="43.5" y="25.1328"/><text fill="#000000" font-family="sans-serif" font-size="14" lengthAdjust="spacing" textLength="32" x="50.5" y="45.1279">User</text><rect fill="#E2E2F0" height="30.2969" rx="2.5" ry="2.5" style="stroke:#181818;stroke-width:0.5;" width="46" x="43.5" y="685.8203"/><text fill="#000000" font-family="sans-serif" font-size="14" lengthAdjust="spacing" textLength="32" x="50.5" y="705.8154">User</text><rect fill="#E2E2F0" height="30.2969" rx="2.5" ry="2.5" style="stroke:#181818;stroke-width:0.5;" width="89" x="294.5" y="25.1328"/><text fill="#000000" font-family="sans-serif" font-size="14" lengthAdjust="spacing" textLength="75" x="301.5" y="45.1279">Application</text><rect fill="#E2E2F0" height="30.2969" rx="2.5" ry="2.5" style="stroke:#181818;stroke-width:0.5;" width="89" x="294.5" y="685.8203"/><text fill="#000000" font-family="sans-serif" font-size="14" lengthAdjust="spacing" textLength="75" x="301.5" y="705.8154">Application</text><rect fill="#E2E2F0" height="30.2969" rx="2.5" ry="2.5" style="stroke:#181818;stroke-width:0.5;" width="189" x="449.5" y="25.1328"/><text fill="#000000" font-family="sans-serif" font-size="14" lengthAdjust="spacing" textLength="175" x="456.5" y="45.1279">Recommendation Engine</text><rect fill="#E2E2F0" height="30.2969" rx="2.5" ry="2.5" style="stroke:#181818;stroke-width:0.5;" width="189" x="449.5" y="685.8203"/><text fill="#000000" font-family="sans-serif" font-size="14" lengthAdjust="spacing" textLength="175" x="456.5" y="705.8154">Recommendation Engine</text><rect fill="#E2E2F0" height="30.2969" rx="2.5" ry="2.5" style="stroke:#181818;stroke-width:0.5;" width="89" x="648.5" y="25.1328"/><text fill="#000000" font-family="sans-serif" font-size="14" lengthAdjust="spacing" textLength="75" x="655.5" y="45.1279">Dispatcher</text><rect fill="#E2E2F0" height="30.2969" rx="2.5" ry="2.5" style="stroke:#181818;stroke-width:0.5;" width="89" x="648.5" y="685.8203"/><text fill="#000000" font-family="sans-serif" font-size="14" lengthAdjust="spacing" textLength="75" x="655.5" y="705.8154">Dispatcher</text><rect fill="#E2E2F0" height="30.2969" rx="2.5" ry="2.5" style="stroke:#181818;stroke-width:0.5;" width="95" x="747.5" y="25.1328"/><text fill="#000000" font-family="sans-serif" font-size="14" lengthAdjust="spacing" textLength="81" x="754.5" y="45.1279">JobManager</text><rect fill="#E2E2F0" height="30.2969" rx="2.5" ry="2.5" style="stroke:#181818;stroke-width:0.5;" width="95" x="747.5" y="685.8203"/><text fill="#000000" font-family="sans-serif" font-size="14" lengthAdjust="spacing" textLength="81" x="754.5" y="705.8154">JobManager</text><rect fill="#E2E2F0" height="30.2969" rx="2.5" ry="2.5" style="stroke:#181818;stroke-width:0.5;" width="100" x="915" y="25.1328"/><text fill="#000000" font-family="sans-serif" font-size="14" lengthAdjust="spacing" textLength="86" x="922" y="45.1279">Source Task</text><rect fill="#E2E2F0" height="30.2969" rx="2.5" ry="2.5" style="stroke:#181818;stroke-width:0.5;" width="100" x="915" y="685.8203"/><text fill="#000000" font-family="sans-serif" font-size="14" lengthAdjust="spacing" textLength="86" x="922" y="705.8154">Source Task</text><rect fill="#E2E2F0" height="30.2969" rx="2.5" ry="2.5" style="stroke:#181818;stroke-width:0.5;" width="146" x="1115" y="25.1328"/><text fill="#000000" font-family="sans-serif" font-size="14" lengthAdjust="spacing" textLength="132" x="1122" y="45.1279">UserEventOperator</text><rect fill="#E2E2F0" height="30.2969" rx="2.5" ry="2.5" style="stroke:#181818;stroke-width:0.5;" width="146" x="1115" y="685.8203"/><text fill="#000000" font-family="sans-serif" font-size="14" lengthAdjust="spacing" textLength="132" x="1122" y="705.8154">UserEventOperator</text><rect fill="#E2E2F0" height="30.2969" rx="2.5" ry="2.5" style="stroke:#181818;stroke-width:0.5;" width="122" x="1330" y="25.1328"/><text fill="#000000" font-family="sans-serif" font-size="14" lengthAdjust="spacing" textLength="108" x="1337" y="45.1279">Network Shuffle</text><rect fill="#E2E2F0" height="30.2969" rx="2.5" ry="2.5" style="stroke:#181818;stroke-width:0.5;" width="122" x="1330" y="685.8203"/><text fill="#000000" font-family="sans-serif" font-size="14" lengthAdjust="spacing" textLength="108" x="1337" y="705.8154">Network Shuffle</text><rect fill="#E2E2F0" height="30.2969" rx="2.5" ry="2.5" style="stroke:#181818;stroke-width:0.5;" width="198" x="1462" y="25.1328"/><text fill="#000000" font-family="sans-serif" font-size="14" lengthAdjust="spacing" textLength="184" x="1469" y="45.1279">RecommendationOperator</text><rect fill="#E2E2F0" height="30.2969" rx="2.5" ry="2.5" style="stroke:#181818;stroke-width:0.5;" width="198" x="1462" y="685.8203"/><text fill="#000000" font-family="sans-serif" font-size="14" lengthAdjust="spacing" textLength="184" x="1469" y="705.8154">RecommendationOperator</text><rect fill="#E2E2F0" height="30.2969" rx="2.5" ry="2.5" style="stroke:#181818;stroke-width:0.5;" width="115" x="1673.5" y="25.1328"/><text fill="#000000" font-family="sans-serif" font-size="14" lengthAdjust="spacing" textLength="101" x="1680.5" y="45.1279">State Backend</text><rect fill="#E2E2F0" height="30.2969" rx="2.5" ry="2.5" style="stroke:#181818;stroke-width:0.5;" width="115" x="1673.5" y="685.8203"/><text fill="#000000" font-family="sans-serif" font-size="14" lengthAdjust="spacing" textLength="101" x="1680.5" y="705.8154">State Backend</text><rect fill="#FFFFFF" height="538.125" style="stroke:#181818;stroke-width:1.0;" width="10" x="334" y="130.6953"/><rect fill="#FFFFFF" height="29.1328" style="stroke:#181818;stroke-width:1.0;" width="10" x="539" y="610.5547"/><rect fill="#FFFFFF" height="59.1328" style="stroke:#181818;stroke-width:1.0;" width="10" x="688" y="202.9609"/><rect fill="#FFFFFF" height="436.7266" style="stroke:#181818;stroke-width:1.0;" width="10" x="790" y="232.0938"/><rect fill="#FFFFFF" height="334.4609" style="stroke:#181818;stroke-width:1.0;" width="10" x="960" y="334.3594"/><rect fill="#FFFFFF" height="314.3281" style="stroke:#181818;stroke-width:1.0;" width="10" x="1183" y="363.4922"/><rect fill="#FFFFFF" height="183.7969" style="stroke:#181818;stroke-width:1.0;" width="10" x="1386" y="494.0234"/><rect fill="#FFFFFF" height="154.6641" style="stroke:#181818;stroke-width:1.0;" width="10" x="1556" y="523.1563"/><rect fill="#FFFFFF" height="29.1328" style="stroke:#181818;stroke-width:1.0;" width="10" x="1726" y="392.625"/><rect fill="#FFFFFF" height="29.1328" style="stroke:#181818;stroke-width:1.0;" width="10" x="1726" y="552.2891"/><rect fill="#EEEEEE" height="3" style="stroke:#EEEEEE;stroke-width:1.0;" width="1793.5" x="0" y="86.9961"/><line style="stroke:#000000;stroke-width:1.0;" x1="0" x2="1793.5" y1="86.9961" y2="86.9961"/><line style="stroke:#000000;stroke-width:1.0;" x1="0" x2="1793.5" y1="89.9961" y2="89.9961"/><rect fill="#EEEEEE" height="23.1328" style="stroke:#000000;stroke-width:2.0;" width="136" x="828.75" y="76.4297"/><text fill="#000000" font-family="sans-serif" font-size="13" font-weight="bold" lengthAdjust="spacing" textLength="117" x="834.75" y="92.4966">User Interaction</text><polygon fill="#181818" points="322,126.6953,332,130.6953,322,134.6953,326,130.6953" style="stroke:#181818;stroke-width:1.0;"/><line style="stroke:#181818;stroke-width:1.0;" x1="66.5" x2="328" y1="130.6953" y2="130.6953"/><text fill="#000000" font-family="sans-serif" font-size="13" lengthAdjust="spacing" textLength="83" x="73.5" y="125.6294">Browse/Shop</text><rect fill="#EEEEEE" height="3" style="stroke:#EEEEEE;stroke-width:1.0;" width="1793.5" x="0" y="159.2617"/><line style="stroke:#000000;stroke-width:1.0;" x1="0" x2="1793.5" y1="159.2617" y2="159.2617"/><line style="stroke:#000000;stroke-width:1.0;" x1="0" x2="1793.5" y1="162.2617" y2="162.2617"/><rect fill="#EEEEEE" height="23.1328" style="stroke:#000000;stroke-width:2.0;" width="131" x="831.25" y="148.6953"/><text fill="#000000" font-family="sans-serif" font-size="13" font-weight="bold" lengthAdjust="spacing" textLength="112" x="837.25" y="164.7622">Job Submission</text><polygon fill="#181818" points="676,198.9609,686,202.9609,676,206.9609,680,202.9609" style="stroke:#181818;stroke-width:1.0;"/><line style="stroke:#181818;stroke-width:1.0;" x1="344" x2="682" y1="202.9609" y2="202.9609"/><text fill="#000000" font-family="sans-serif" font-size="13" lengthAdjust="spacing" textLength="208" x="351" y="197.895">Submit Job (Define Data Source)</text><polygon fill="#181818" points="778,228.0938,788,232.0938,778,236.0938,782,232.0938" style="stroke:#181818;stroke-width:1.0;"/><line style="stroke:#181818;stroke-width:1.0;" x1="698" x2="784" y1="232.0938" y2="232.0938"/><text fill="#000000" font-family="sans-serif" font-size="13" lengthAdjust="spacing" textLength="65" x="705" y="227.0278">Assign Job</text><rect fill="#EEEEEE" height="3" style="stroke:#EEEEEE;stroke-width:1.0;" width="1793.5" x="0" y="290.6602"/><line style="stroke:#000000;stroke-width:1.0;" x1="0" x2="1793.5" y1="290.6602" y2="290.6602"/><line style="stroke:#000000;stroke-width:1.0;" x1="0" x2="1793.5" y1="293.6602" y2="293.6602"/><rect fill="#EEEEEE" height="23.1328" style="stroke:#000000;stroke-width:2.0;" width="152" x="820.75" y="280.0938"/><text fill="#000000" font-family="sans-serif" font-size="13" font-weight="bold" lengthAdjust="spacing" textLength="133" x="826.75" y="296.1606">Fetch User Events</text><polygon fill="#181818" points="948,330.3594,958,334.3594,948,338.3594,952,334.3594" style="stroke:#181818;stroke-width:1.0;"/><line style="stroke:#181818;stroke-width:1.0;" x1="800" x2="954" y1="334.3594" y2="334.3594"/><text fill="#000000" font-family="sans-serif" font-size="13" lengthAdjust="spacing" textLength="141" x="807" y="329.2935">Schedule Source Task</text><polygon fill="#181818" points="1171,359.4922,1181,363.4922,1171,367.4922,1175,363.4922" style="stroke:#181818;stroke-width:1.0;"/><line style="stroke:#181818;stroke-width:1.0;" x1="970" x2="1177" y1="363.4922" y2="363.4922"/><text fill="#000000" font-family="sans-serif" font-size="13" lengthAdjust="spacing" textLength="194" x="977" y="358.4263">Assign and Ingest User Events</text><polygon fill="#181818" points="1714,388.625,1724,392.625,1714,396.625,1718,392.625" style="stroke:#181818;stroke-width:1.0;"/><line style="stroke:#181818;stroke-width:1.0;" x1="1193" x2="1720" y1="392.625" y2="392.625"/><text fill="#000000" font-family="sans-serif" font-size="13" lengthAdjust="spacing" textLength="175" x="1200" y="387.5591">Retrieve Historical Behavior</text><polygon fill="#181818" points="1204,417.7578,1194,421.7578,1204,425.7578,1200,421.7578" style="stroke:#181818;stroke-width:1.0;"/><line style="stroke:#181818;stroke-width:1.0;stroke-dasharray:2.0,2.0;" x1="1198" x2="1730" y1="421.7578" y2="421.7578"/><text fill="#000000" font-family="sans-serif" font-size="13" lengthAdjust="spacing" textLength="134" x="1210" y="416.6919">Return Past Behavior</text><rect fill="#EEEEEE" height="3" style="stroke:#EEEEEE;stroke-width:1.0;" width="1793.5" x="0" y="450.3242"/><line style="stroke:#000000;stroke-width:1.0;" x1="0" x2="1793.5" y1="450.3242" y2="450.3242"/><line style="stroke:#000000;stroke-width:1.0;" x1="0" x2="1793.5" y1="453.3242" y2="453.3242"/><rect fill="#EEEEEE" height="23.1328" style="stroke:#000000;stroke-width:2.0;" width="329" x="732.25" y="439.7578"/><text fill="#000000" font-family="sans-serif" font-size="13" font-weight="bold" lengthAdjust="spacing" textLength="310" x="738.25" y="455.8247">Generate Personalized Recommendations</text><polygon fill="#181818" points="1374,490.0234,1384,494.0234,1374,498.0234,1378,494.0234" style="stroke:#181818;stroke-width:1.0;"/><line style="stroke:#181818;stroke-width:1.0;" x1="1193" x2="1380" y1="494.0234" y2="494.0234"/><text fill="#000000" font-family="sans-serif" font-size="13" lengthAdjust="spacing" textLength="174" x="1200" y="488.9575">Serialize and Partition Data</text><polygon fill="#181818" points="1544,519.1563,1554,523.1563,1544,527.1563,1548,523.1563" style="stroke:#181818;stroke-width:1.0;"/><line style="stroke:#181818;stroke-width:1.0;" x1="1396" x2="1550" y1="523.1563" y2="523.1563"/><text fill="#000000" font-family="sans-serif" font-size="13" lengthAdjust="spacing" textLength="127" x="1403" y="518.0903">Send Grouped Data</text><polygon fill="#181818" points="1714,548.2891,1724,552.2891,1714,556.2891,1718,552.2891" style="stroke:#181818;stroke-width:1.0;"/><line style="stroke:#181818;stroke-width:1.0;" x1="1566" x2="1720" y1="552.2891" y2="552.2891"/><text fill="#000000" font-family="sans-serif" font-size="13" lengthAdjust="spacing" textLength="141" x="1573" y="547.2231">Update User Behavior</text><polygon fill="#181818" points="1577,577.4219,1567,581.4219,1577,585.4219,1573,581.4219" style="stroke:#181818;stroke-width:1.0;"/><line style="stroke:#181818;stroke-width:1.0;stroke-dasharray:2.0,2.0;" x1="1571" x2="1730" y1="581.4219" y2="581.4219"/><text fill="#000000" font-family="sans-serif" font-size="13" lengthAdjust="spacing" textLength="134" x="1583" y="576.356">Acknowledge Update</text><polygon fill="#181818" points="560,606.5547,550,610.5547,560,614.5547,556,610.5547" style="stroke:#181818;stroke-width:1.0;"/><line style="stroke:#181818;stroke-width:1.0;" x1="554" x2="1555" y1="610.5547" y2="610.5547"/><text fill="#000000" font-family="sans-serif" font-size="13" lengthAdjust="spacing" textLength="269" x="566" y="605.4888">Generate Personalized Recommendations</text><polygon fill="#181818" points="355,635.6875,345,639.6875,355,643.6875,351,639.6875" style="stroke:#181818;stroke-width:1.0;"/><line style="stroke:#181818;stroke-width:1.0;" x1="349" x2="543" y1="639.6875" y2="639.6875"/><text fill="#000000" font-family="sans-serif" font-size="13" lengthAdjust="spacing" textLength="171" x="361" y="634.6216">Update Recommendations</text><polygon fill="#181818" points="77.5,664.8203,67.5,668.8203,77.5,672.8203,73.5,668.8203" style="stroke:#181818;stroke-width:1.0;"/><line style="stroke:#181818;stroke-width:1.0;" x1="71.5" x2="338" y1="668.8203" y2="668.8203"/><text fill="#000000" font-family="sans-serif" font-size="13" lengthAdjust="spacing" textLength="205" x="83.5" y="663.7544">Display Personalized Experience</text><!--MD5=[b678a95cc69f243742b4c2aa415e9b75]
@startuml
box "User Interactions" #LightBlue
  participant "User" as U
end box

box "E-commerce Platform" #LightPink
  participant "Application" as App
  participant "Recommendation Engine" as RE
end box

box "Flink Cluster" #LightGreen
  participant "Dispatcher" as DP
  participant "JobManager" as JM
  participant "Source Task" as ST
  participant "UserEventOperator" as D1
  participant "Network Shuffle" as NS
  participant "RecommendationOperator" as D2
  participant "State Backend" as F
end box

== User Interaction ==
U -> App: Browse/Shop
activate App

== Job Submission ==
App -> DP: Submit Job (Define Data Source)
activate DP
DP -> JM: Assign Job
activate JM
deactivate DP

== Fetch User Events ==
JM -> ST: Schedule Source Task
activate ST
ST -> D1: Assign and Ingest User Events
activate D1
D1 -> F: Retrieve Historical Behavior
activate F
F - -> D1: Return Past Behavior
deactivate F

== Generate Personalized Recommendations ==
D1 -> NS: Serialize and Partition Data
activate NS
NS -> D2: Send Grouped Data
activate D2
D2 -> F: Update User Behavior
activate F
F - -> D2: Acknowledge Update
deactivate F
D2 -> RE: Generate Personalized Recommendations
activate RE
RE -> App: Update Recommendations
deactivate RE
App -> U: Display Personalized Experience
deactivate App

deactivate JM
deactivate ST
@enduml

PlantUML version 1.2022.7(Mon Aug 22 17:01:30 UTC 2022)
(GPL source distribution)
Java Runtime: OpenJDK Runtime Environment
JVM: OpenJDK 64-Bit Server VM
Default Encoding: UTF-8
Language: en
Country: null
--></g></svg>