<?xml version="1.0" encoding="UTF-8" standalone="no"?><svg xmlns="http://www.w3.org/2000/svg" xmlns:xlink="http://www.w3.org/1999/xlink" contentStyleType="text/css" height="678px" preserveAspectRatio="none" style="width:1231px;height:678px;background:#FFFFFF;" version="1.1" viewBox="0 0 1231 678" width="1231px" zoomAndPan="magnify"><defs/><g><rect fill="#ADD8E6" height="666.8516" style="stroke:#181818;stroke-width:0.5;" width="154" x="1" y="6"/><text fill="#000000" font-family="sans-serif" font-size="13" font-weight="bold" lengthAdjust="spacing" textLength="124" x="16" y="18.0669">Financial System</text><rect fill="#90EE90" height="666.8516" style="stroke:#181818;stroke-width:0.5;" width="790" x="223.5" y="6"/><text fill="#000000" font-family="sans-serif" font-size="13" font-weight="bold" lengthAdjust="spacing" textLength="92" x="572.5" y="18.0669">Flink Cluster</text><rect fill="#FFFFE0" height="666.8516" style="stroke:#181818;stroke-width:0.5;" width="208" x="1015.5" y="6"/><text fill="#000000" font-family="sans-serif" font-size="13" font-weight="bold" lengthAdjust="spacing" textLength="202" x="1018.5" y="18.0669">Security Monitoring System</text><rect fill="#FFFFFF" height="173.6641" style="stroke:#181818;stroke-width:1.0;" width="10" x="73" y="130.6953"/><rect fill="#FFFFFF" height="489.8594" style="stroke:#181818;stroke-width:1.0;" width="10" x="270" y="130.6953"/><rect fill="#FFFFFF" height="417.5938" style="stroke:#181818;stroke-width:1.0;" width="10" x="497" y="202.9609"/><rect fill="#FFFFFF" height="243.9297" style="stroke:#181818;stroke-width:1.0;" width="10" x="730" y="376.625"/><rect fill="#FFFFFF" height="29.1328" style="stroke:#181818;stroke-width:1.0;" width="10" x="947" y="405.7578"/><rect fill="#FFFFFF" height="29.1328" style="stroke:#181818;stroke-width:1.0;" width="10" x="1114.5" y="591.4219"/><line style="stroke:#181818;stroke-width:0.5;stroke-dasharray:5.0,5.0;" x1="78" x2="78" y1="56.4297" y2="638.5547"/><line style="stroke:#181818;stroke-width:0.5;stroke-dasharray:5.0,5.0;" x1="274.5" x2="274.5" y1="56.4297" y2="638.5547"/><line style="stroke:#181818;stroke-width:0.5;stroke-dasharray:5.0,5.0;" x1="501.5" x2="501.5" y1="56.4297" y2="638.5547"/><line style="stroke:#181818;stroke-width:0.5;stroke-dasharray:5.0,5.0;" x1="734.5" x2="734.5" y1="56.4297" y2="638.5547"/><line style="stroke:#181818;stroke-width:0.5;stroke-dasharray:5.0,5.0;" x1="951.5" x2="951.5" y1="56.4297" y2="638.5547"/><line style="stroke:#181818;stroke-width:0.5;stroke-dasharray:5.0,5.0;" x1="1119" x2="1119" y1="56.4297" y2="638.5547"/><rect fill="#E2E2F0" height="30.2969" rx="2.5" ry="2.5" style="stroke:#181818;stroke-width:0.5;" width="146" x="5" y="25.1328"/><text fill="#000000" font-family="sans-serif" font-size="14" lengthAdjust="spacing" textLength="132" x="12" y="45.1279">TransactionSystem</text><rect fill="#E2E2F0" height="30.2969" rx="2.5" ry="2.5" style="stroke:#181818;stroke-width:0.5;" width="146" x="5" y="637.5547"/><text fill="#000000" font-family="sans-serif" font-size="14" lengthAdjust="spacing" textLength="132" x="12" y="657.5498">TransactionSystem</text><rect fill="#E2E2F0" height="30.2969" rx="2.5" ry="2.5" style="stroke:#181818;stroke-width:0.5;" width="95" x="227.5" y="25.1328"/><text fill="#000000" font-family="sans-serif" font-size="14" lengthAdjust="spacing" textLength="81" x="234.5" y="45.1279">JobManager</text><rect fill="#E2E2F0" height="30.2969" rx="2.5" ry="2.5" style="stroke:#181818;stroke-width:0.5;" width="95" x="227.5" y="637.5547"/><text fill="#000000" font-family="sans-serif" font-size="14" lengthAdjust="spacing" textLength="81" x="234.5" y="657.5498">JobManager</text><rect fill="#E2E2F0" height="30.2969" rx="2.5" ry="2.5" style="stroke:#181818;stroke-width:0.5;" width="107" x="448.5" y="25.1328"/><text fill="#000000" font-family="sans-serif" font-size="14" lengthAdjust="spacing" textLength="93" x="455.5" y="45.1279">TaskManager</text><rect fill="#E2E2F0" height="30.2969" rx="2.5" ry="2.5" style="stroke:#181818;stroke-width:0.5;" width="107" x="448.5" y="637.5547"/><text fill="#000000" font-family="sans-serif" font-size="14" lengthAdjust="spacing" textLength="93" x="455.5" y="657.5498">TaskManager</text><rect fill="#E2E2F0" height="30.2969" rx="2.5" ry="2.5" style="stroke:#181818;stroke-width:0.5;" width="121" x="674.5" y="25.1328"/><text fill="#000000" font-family="sans-serif" font-size="14" lengthAdjust="spacing" textLength="107" x="681.5" y="45.1279">FraudDetection</text><rect fill="#E2E2F0" height="30.2969" rx="2.5" ry="2.5" style="stroke:#181818;stroke-width:0.5;" width="121" x="674.5" y="637.5547"/><text fill="#000000" font-family="sans-serif" font-size="14" lengthAdjust="spacing" textLength="107" x="681.5" y="657.5498">FraudDetection</text><rect fill="#E2E2F0" height="30.2969" rx="2.5" ry="2.5" style="stroke:#181818;stroke-width:0.5;" width="115" x="894.5" y="25.1328"/><text fill="#000000" font-family="sans-serif" font-size="14" lengthAdjust="spacing" textLength="101" x="901.5" y="45.1279">State Backend</text><rect fill="#E2E2F0" height="30.2969" rx="2.5" ry="2.5" style="stroke:#181818;stroke-width:0.5;" width="115" x="894.5" y="637.5547"/><text fill="#000000" font-family="sans-serif" font-size="14" lengthAdjust="spacing" textLength="101" x="901.5" y="657.5498">State Backend</text><rect fill="#E2E2F0" height="30.2969" rx="2.5" ry="2.5" style="stroke:#181818;stroke-width:0.5;" width="95" x="1072" y="25.1328"/><text fill="#000000" font-family="sans-serif" font-size="14" lengthAdjust="spacing" textLength="81" x="1079" y="45.1279">AlertService</text><rect fill="#E2E2F0" height="30.2969" rx="2.5" ry="2.5" style="stroke:#181818;stroke-width:0.5;" width="95" x="1072" y="637.5547"/><text fill="#000000" font-family="sans-serif" font-size="14" lengthAdjust="spacing" textLength="81" x="1079" y="657.5498">AlertService</text><rect fill="#FFFFFF" height="173.6641" style="stroke:#181818;stroke-width:1.0;" width="10" x="73" y="130.6953"/><rect fill="#FFFFFF" height="489.8594" style="stroke:#181818;stroke-width:1.0;" width="10" x="270" y="130.6953"/><rect fill="#FFFFFF" height="417.5938" style="stroke:#181818;stroke-width:1.0;" width="10" x="497" y="202.9609"/><rect fill="#FFFFFF" height="243.9297" style="stroke:#181818;stroke-width:1.0;" width="10" x="730" y="376.625"/><rect fill="#FFFFFF" height="29.1328" style="stroke:#181818;stroke-width:1.0;" width="10" x="947" y="405.7578"/><rect fill="#FFFFFF" height="29.1328" style="stroke:#181818;stroke-width:1.0;" width="10" x="1114.5" y="591.4219"/><rect fill="#EEEEEE" height="3" style="stroke:#EEEEEE;stroke-width:1.0;" width="1224.5" x="0" y="86.9961"/><line style="stroke:#000000;stroke-width:1.0;" x1="0" x2="1224.5" y1="86.9961" y2="86.9961"/><line style="stroke:#000000;stroke-width:1.0;" x1="0" x2="1224.5" y1="89.9961" y2="89.9961"/><rect fill="#EEEEEE" height="23.1328" style="stroke:#000000;stroke-width:2.0;" width="173" x="525.75" y="76.4297"/><text fill="#000000" font-family="sans-serif" font-size="13" font-weight="bold" lengthAdjust="spacing" textLength="154" x="531.75" y="92.4966">Transaction Initiation</text><polygon fill="#181818" points="258,126.6953,268,130.6953,258,134.6953,262,130.6953" style="stroke:#181818;stroke-width:1.0;"/><line style="stroke:#181818;stroke-width:1.0;" x1="83" x2="264" y1="130.6953" y2="130.6953"/><text fill="#000000" font-family="sans-serif" font-size="13" lengthAdjust="spacing" textLength="173" x="90" y="125.6294">Emit Financial Transactions</text><rect fill="#EEEEEE" height="3" style="stroke:#EEEEEE;stroke-width:1.0;" width="1224.5" x="0" y="159.2617"/><line style="stroke:#000000;stroke-width:1.0;" x1="0" x2="1224.5" y1="159.2617" y2="159.2617"/><line style="stroke:#000000;stroke-width:1.0;" x1="0" x2="1224.5" y1="162.2617" y2="162.2617"/><rect fill="#EEEEEE" height="23.1328" style="stroke:#000000;stroke-width:2.0;" width="139" x="542.75" y="148.6953"/><text fill="#000000" font-family="sans-serif" font-size="13" font-weight="bold" lengthAdjust="spacing" textLength="120" x="548.75" y="164.7622">Task Scheduling</text><polygon fill="#181818" points="485,198.9609,495,202.9609,485,206.9609,489,202.9609" style="stroke:#181818;stroke-width:1.0;"/><line style="stroke:#181818;stroke-width:1.0;" x1="280" x2="491" y1="202.9609" y2="202.9609"/><text fill="#000000" font-family="sans-serif" font-size="13" lengthAdjust="spacing" textLength="198" x="287" y="197.895">Schedule Fraud Detection Task</text><rect fill="#EEEEEE" height="3" style="stroke:#EEEEEE;stroke-width:1.0;" width="1224.5" x="0" y="231.5273"/><line style="stroke:#000000;stroke-width:1.0;" x1="0" x2="1224.5" y1="231.5273" y2="231.5273"/><line style="stroke:#000000;stroke-width:1.0;" x1="0" x2="1224.5" y1="234.5273" y2="234.5273"/><rect fill="#EEEEEE" height="23.1328" style="stroke:#000000;stroke-width:2.0;" width="173" x="525.75" y="220.9609"/><text fill="#000000" font-family="sans-serif" font-size="13" font-weight="bold" lengthAdjust="spacing" textLength="154" x="531.75" y="237.0278">Transaction Fetching</text><polygon fill="#181818" points="94,271.2266,84,275.2266,94,279.2266,90,275.2266" style="stroke:#181818;stroke-width:1.0;"/><line style="stroke:#181818;stroke-width:1.0;" x1="88" x2="496" y1="275.2266" y2="275.2266"/><text fill="#000000" font-family="sans-serif" font-size="13" lengthAdjust="spacing" textLength="120" x="100" y="270.1606">Fetch Transactions</text><polygon fill="#181818" points="258,300.3594,268,304.3594,258,308.3594,262,304.3594" style="stroke:#181818;stroke-width:1.0;"/><line style="stroke:#181818;stroke-width:1.0;stroke-dasharray:2.0,2.0;" x1="78" x2="264" y1="304.3594" y2="304.3594"/><text fill="#000000" font-family="sans-serif" font-size="13" lengthAdjust="spacing" textLength="122" x="85" y="299.2935">Acknowledge Fetch</text><rect fill="#EEEEEE" height="3" style="stroke:#EEEEEE;stroke-width:1.0;" width="1224.5" x="0" y="332.9258"/><line style="stroke:#000000;stroke-width:1.0;" x1="0" x2="1224.5" y1="332.9258" y2="332.9258"/><line style="stroke:#000000;stroke-width:1.0;" x1="0" x2="1224.5" y1="335.9258" y2="335.9258"/><rect fill="#EEEEEE" height="23.1328" style="stroke:#000000;stroke-width:2.0;" width="138" x="543.25" y="322.3594"/><text fill="#000000" font-family="sans-serif" font-size="13" font-weight="bold" lengthAdjust="spacing" textLength="119" x="549.25" y="338.4263">Fraud Detection</text><polygon fill="#181818" points="718,372.625,728,376.625,718,380.625,722,376.625" style="stroke:#181818;stroke-width:1.0;"/><line style="stroke:#181818;stroke-width:1.0;" x1="507" x2="724" y1="376.625" y2="376.625"/><text fill="#000000" font-family="sans-serif" font-size="13" lengthAdjust="spacing" textLength="204" x="514" y="371.5591">Assign Transactions for Analysis</text><polygon fill="#181818" points="935,401.7578,945,405.7578,935,409.7578,939,405.7578" style="stroke:#181818;stroke-width:1.0;"/><line style="stroke:#181818;stroke-width:1.0;" x1="740" x2="941" y1="405.7578" y2="405.7578"/><text fill="#000000" font-family="sans-serif" font-size="13" lengthAdjust="spacing" textLength="179" x="747" y="400.6919">Retrieve Transaction History</text><polygon fill="#181818" points="751,430.8906,741,434.8906,751,438.8906,747,434.8906" style="stroke:#181818;stroke-width:1.0;"/><line style="stroke:#181818;stroke-width:1.0;stroke-dasharray:2.0,2.0;" x1="745" x2="951" y1="434.8906" y2="434.8906"/><text fill="#000000" font-family="sans-serif" font-size="13" lengthAdjust="spacing" textLength="91" x="757" y="429.8247">Return History</text><line style="stroke:#181818;stroke-width:1.0;" x1="740" x2="782" y1="464.0234" y2="464.0234"/><line style="stroke:#181818;stroke-width:1.0;" x1="782" x2="782" y1="464.0234" y2="477.0234"/><line style="stroke:#181818;stroke-width:1.0;" x1="741" x2="782" y1="477.0234" y2="477.0234"/><polygon fill="#181818" points="751,473.0234,741,477.0234,751,481.0234,747,477.0234" style="stroke:#181818;stroke-width:1.0;"/><text fill="#000000" font-family="sans-serif" font-size="13" lengthAdjust="spacing" textLength="193" x="747" y="458.9575">Analyze for Fraudulent Activity</text><line style="stroke:#181818;stroke-width:1.0;stroke-dasharray:2.0,2.0;" x1="740" x2="782" y1="506.1563" y2="506.1563"/><line style="stroke:#181818;stroke-width:1.0;stroke-dasharray:2.0,2.0;" x1="782" x2="782" y1="506.1563" y2="519.1563"/><line style="stroke:#181818;stroke-width:1.0;stroke-dasharray:2.0,2.0;" x1="741" x2="782" y1="519.1563" y2="519.1563"/><polygon fill="#181818" points="751,515.1563,741,519.1563,751,523.1563,747,519.1563" style="stroke:#181818;stroke-width:1.0;"/><text fill="#000000" font-family="sans-serif" font-size="13" lengthAdjust="spacing" textLength="188" x="747" y="501.0903">Identified Suspicious Patterns</text><rect fill="#EEEEEE" height="3" style="stroke:#EEEEEE;stroke-width:1.0;" width="1224.5" x="0" y="547.7227"/><line style="stroke:#000000;stroke-width:1.0;" x1="0" x2="1224.5" y1="547.7227" y2="547.7227"/><line style="stroke:#000000;stroke-width:1.0;" x1="0" x2="1224.5" y1="550.7227" y2="550.7227"/><rect fill="#EEEEEE" height="23.1328" style="stroke:#000000;stroke-width:2.0;" width="120" x="552.25" y="537.1563"/><text fill="#000000" font-family="sans-serif" font-size="13" font-weight="bold" lengthAdjust="spacing" textLength="101" x="558.25" y="553.2231">Trigger Alerts</text><polygon fill="#181818" points="1102.5,587.4219,1112.5,591.4219,1102.5,595.4219,1106.5,591.4219" style="stroke:#181818;stroke-width:1.0;"/><line style="stroke:#181818;stroke-width:1.0;" x1="740" x2="1108.5" y1="591.4219" y2="591.4219"/><text fill="#000000" font-family="sans-serif" font-size="13" lengthAdjust="spacing" textLength="141" x="747" y="586.356">Trigger Security Alerts</text><polygon fill="#181818" points="286,616.5547,276,620.5547,286,624.5547,282,620.5547" style="stroke:#181818;stroke-width:1.0;"/><line style="stroke:#181818;stroke-width:1.0;stroke-dasharray:2.0,2.0;" x1="280" x2="1118.5" y1="620.5547" y2="620.5547"/><text fill="#000000" font-family="sans-serif" font-size="13" lengthAdjust="spacing" textLength="177" x="292" y="615.4888">Acknowledge Alert Handling</text><!--MD5=[0ec38640173624d11e6c65b44663a08f]
@startuml
box "Financial System" #LightBlue
  participant "TransactionSystem" as TS
end box

box "Flink Cluster" #LightGreen
  participant "JobManager" as JM
  participant "TaskManager" as TM
  participant "FraudDetection" as FD
  participant "State Backend" as SB
end box

box "Security Monitoring System" #LightYellow
  participant "AlertService" as AS
end box

== Transaction Initiation ==
TS -> JM: Emit Financial Transactions
activate JM
activate TS

== Task Scheduling ==
JM -> TM: Schedule Fraud Detection Task
activate TM

== Transaction Fetching ==
TM -> TS: Fetch Transactions
TS - -> JM: Acknowledge Fetch
deactivate TS

== Fraud Detection ==
TM -> FD: Assign Transactions for Analysis
activate FD
FD -> SB: Retrieve Transaction History
activate SB
SB - -> FD: Return History
deactivate SB

FD -> FD: Analyze for Fraudulent Activity
FD - -> FD: Identified Suspicious Patterns

== Trigger Alerts ==
FD -> AS: Trigger Security Alerts
activate AS
AS - -> JM: Acknowledge Alert Handling
deactivate AS

deactivate FD
deactivate TM
deactivate JM
@enduml

PlantUML version 1.2022.7(Mon Aug 22 17:01:30 UTC 2022)
(GPL source distribution)
Java Runtime: OpenJDK Runtime Environment
JVM: OpenJDK 64-Bit Server VM
Default Encoding: UTF-8
Language: en
Country: null
--></g></svg>