<?xml version="1.0" encoding="UTF-8" standalone="no"?><svg xmlns="http://www.w3.org/2000/svg" xmlns:xlink="http://www.w3.org/1999/xlink" contentStyleType="text/css" height="753px" preserveAspectRatio="none" style="width:1243px;height:753px;background:#FFFFFF;" version="1.1" viewBox="0 0 1243 753" width="1243px" zoomAndPan="magnify"><defs/><g><rect fill="#ADD8E6" height="741.3828" style="stroke:#181818;stroke-width:0.5;" width="266" x="1" y="6"/><text fill="#000000" font-family="sans-serif" font-size="13" font-weight="bold" lengthAdjust="spacing" textLength="98" x="85" y="18.0669">Data Sources</text><rect fill="#90EE90" height="741.3828" style="stroke:#181818;stroke-width:0.5;" width="541.5" x="269" y="6"/><text fill="#000000" font-family="sans-serif" font-size="13" font-weight="bold" lengthAdjust="spacing" textLength="92" x="493.75" y="18.0669">Flink Cluster</text><rect fill="#FFFFE0" height="741.3828" style="stroke:#181818;stroke-width:0.5;" width="137" x="934" y="6"/><text fill="#000000" font-family="sans-serif" font-size="13" font-weight="bold" lengthAdjust="spacing" textLength="122" x="941.5" y="18.0669">Data Warehouse</text><rect fill="#FFB6C1" height="741.3828" style="stroke:#181818;stroke-width:0.5;" width="162" x="1073" y="6"/><text fill="#000000" font-family="sans-serif" font-size="13" font-weight="bold" lengthAdjust="spacing" textLength="66" x="1121" y="18.0669">Analytics</text><rect fill="#FFFFFF" height="29.1328" style="stroke:#181818;stroke-width:1.0;" width="10" x="49.5" y="159.8281"/><rect fill="#FFFFFF" height="628.6563" style="stroke:#181818;stroke-width:1.0;" width="10" x="315.5" y="66.4297"/><rect fill="#FFFFFF" height="87.3984" style="stroke:#181818;stroke-width:1.0;" width="10" x="545.5" y="130.6953"/><rect fill="#FFFFFF" height="71.2656" style="stroke:#181818;stroke-width:1.0;" width="10" x="545.5" y="247.2266"/><rect fill="#FFFFFF" height="87.3984" style="stroke:#181818;stroke-width:1.0;" width="10" x="545.5" y="347.625"/><rect fill="#FFFFFF" height="187.7969" style="stroke:#181818;stroke-width:1.0;" width="10" x="718.5" y="507.2891"/><rect fill="#FFFFFF" height="29.1328" style="stroke:#181818;stroke-width:1.0;" width="10" x="997.5" y="376.7578"/><rect fill="#FFFFFF" height="29.1328" style="stroke:#181818;stroke-width:1.0;" width="10" x="997.5" y="536.4219"/><rect fill="#FFFFFF" height="29.1328" style="stroke:#181818;stroke-width:1.0;" width="10" x="1149" y="636.8203"/><line style="stroke:#181818;stroke-width:0.5;stroke-dasharray:5.0,5.0;" x1="54" x2="54" y1="56.4297" y2="713.0859"/><line style="stroke:#181818;stroke-width:0.5;stroke-dasharray:5.0,5.0;" x1="188" x2="188" y1="56.4297" y2="713.0859"/><line style="stroke:#181818;stroke-width:0.5;stroke-dasharray:5.0,5.0;" x1="320" x2="320" y1="56.4297" y2="713.0859"/><line style="stroke:#181818;stroke-width:0.5;stroke-dasharray:5.0,5.0;" x1="550.5" x2="550.5" y1="56.4297" y2="713.0859"/><line style="stroke:#181818;stroke-width:0.5;stroke-dasharray:5.0,5.0;" x1="723.5" x2="723.5" y1="56.4297" y2="713.0859"/><line style="stroke:#181818;stroke-width:0.5;stroke-dasharray:5.0,5.0;" x1="1002" x2="1002" y1="56.4297" y2="713.0859"/><line style="stroke:#181818;stroke-width:0.5;stroke-dasharray:5.0,5.0;" x1="1154" x2="1154" y1="56.4297" y2="713.0859"/><rect fill="#E2E2F0" height="30.2969" rx="2.5" ry="2.5" style="stroke:#181818;stroke-width:0.5;" width="99" x="5" y="25.1328"/><text fill="#000000" font-family="sans-serif" font-size="14" lengthAdjust="spacing" textLength="85" x="12" y="45.1279">Sensor Data</text><rect fill="#E2E2F0" height="30.2969" rx="2.5" ry="2.5" style="stroke:#181818;stroke-width:0.5;" width="99" x="5" y="712.0859"/><text fill="#000000" font-family="sans-serif" font-size="14" lengthAdjust="spacing" textLength="85" x="12" y="732.0811">Sensor Data</text><rect fill="#E2E2F0" height="30.2969" rx="2.5" ry="2.5" style="stroke:#181818;stroke-width:0.5;" width="149" x="114" y="25.1328"/><text fill="#000000" font-family="sans-serif" font-size="14" lengthAdjust="spacing" textLength="135" x="121" y="45.1279">Manufacturing Logs</text><rect fill="#E2E2F0" height="30.2969" rx="2.5" ry="2.5" style="stroke:#181818;stroke-width:0.5;" width="149" x="114" y="712.0859"/><text fill="#000000" font-family="sans-serif" font-size="14" lengthAdjust="spacing" textLength="135" x="121" y="732.0811">Manufacturing Logs</text><rect fill="#E2E2F0" height="30.2969" rx="2.5" ry="2.5" style="stroke:#181818;stroke-width:0.5;" width="95" x="273" y="25.1328"/><text fill="#000000" font-family="sans-serif" font-size="14" lengthAdjust="spacing" textLength="81" x="280" y="45.1279">JobManager</text><rect fill="#E2E2F0" height="30.2969" rx="2.5" ry="2.5" style="stroke:#181818;stroke-width:0.5;" width="95" x="273" y="712.0859"/><text fill="#000000" font-family="sans-serif" font-size="14" lengthAdjust="spacing" textLength="81" x="280" y="732.0811">JobManager</text><rect fill="#E2E2F0" height="30.2969" rx="2.5" ry="2.5" style="stroke:#181818;stroke-width:0.5;" width="136" x="482.5" y="25.1328"/><text fill="#000000" font-family="sans-serif" font-size="14" lengthAdjust="spacing" textLength="122" x="489.5" y="45.1279">TaskManager ETL</text><rect fill="#E2E2F0" height="30.2969" rx="2.5" ry="2.5" style="stroke:#181818;stroke-width:0.5;" width="136" x="482.5" y="712.0859"/><text fill="#000000" font-family="sans-serif" font-size="14" lengthAdjust="spacing" textLength="122" x="489.5" y="732.0811">TaskManager ETL</text><rect fill="#E2E2F0" height="30.2969" rx="2.5" ry="2.5" style="stroke:#181818;stroke-width:0.5;" width="166" x="640.5" y="25.1328"/><text fill="#000000" font-family="sans-serif" font-size="14" lengthAdjust="spacing" textLength="152" x="647.5" y="45.1279">TaskManager Analysis</text><rect fill="#E2E2F0" height="30.2969" rx="2.5" ry="2.5" style="stroke:#181818;stroke-width:0.5;" width="166" x="640.5" y="712.0859"/><text fill="#000000" font-family="sans-serif" font-size="14" lengthAdjust="spacing" textLength="152" x="647.5" y="732.0811">TaskManager Analysis</text><rect fill="#E2E2F0" height="30.2969" rx="2.5" ry="2.5" style="stroke:#181818;stroke-width:0.5;" width="129" x="938" y="25.1328"/><text fill="#000000" font-family="sans-serif" font-size="14" lengthAdjust="spacing" textLength="115" x="945" y="45.1279">Data Warehouse</text><rect fill="#E2E2F0" height="30.2969" rx="2.5" ry="2.5" style="stroke:#181818;stroke-width:0.5;" width="129" x="938" y="712.0859"/><text fill="#000000" font-family="sans-serif" font-size="14" lengthAdjust="spacing" textLength="115" x="945" y="732.0811">Data Warehouse</text><rect fill="#E2E2F0" height="30.2969" rx="2.5" ry="2.5" style="stroke:#181818;stroke-width:0.5;" width="154" x="1077" y="25.1328"/><text fill="#000000" font-family="sans-serif" font-size="14" lengthAdjust="spacing" textLength="140" x="1084" y="45.1279">Analytics Dashboard</text><rect fill="#E2E2F0" height="30.2969" rx="2.5" ry="2.5" style="stroke:#181818;stroke-width:0.5;" width="154" x="1077" y="712.0859"/><text fill="#000000" font-family="sans-serif" font-size="14" lengthAdjust="spacing" textLength="140" x="1084" y="732.0811">Analytics Dashboard</text><rect fill="#FFFFFF" height="29.1328" style="stroke:#181818;stroke-width:1.0;" width="10" x="49.5" y="159.8281"/><rect fill="#FFFFFF" height="628.6563" style="stroke:#181818;stroke-width:1.0;" width="10" x="315.5" y="66.4297"/><rect fill="#FFFFFF" height="87.3984" style="stroke:#181818;stroke-width:1.0;" width="10" x="545.5" y="130.6953"/><rect fill="#FFFFFF" height="71.2656" style="stroke:#181818;stroke-width:1.0;" width="10" x="545.5" y="247.2266"/><rect fill="#FFFFFF" height="87.3984" style="stroke:#181818;stroke-width:1.0;" width="10" x="545.5" y="347.625"/><rect fill="#FFFFFF" height="187.7969" style="stroke:#181818;stroke-width:1.0;" width="10" x="718.5" y="507.2891"/><rect fill="#FFFFFF" height="29.1328" style="stroke:#181818;stroke-width:1.0;" width="10" x="997.5" y="376.7578"/><rect fill="#FFFFFF" height="29.1328" style="stroke:#181818;stroke-width:1.0;" width="10" x="997.5" y="536.4219"/><rect fill="#FFFFFF" height="29.1328" style="stroke:#181818;stroke-width:1.0;" width="10" x="1149" y="636.8203"/><rect fill="#EEEEEE" height="3" style="stroke:#EEEEEE;stroke-width:1.0;" width="1236" x="0" y="86.9961"/><line style="stroke:#000000;stroke-width:1.0;" x1="0" x2="1236" y1="86.9961" y2="86.9961"/><line style="stroke:#000000;stroke-width:1.0;" x1="0" x2="1236" y1="89.9961" y2="89.9961"/><rect fill="#EEEEEE" height="23.1328" style="stroke:#000000;stroke-width:2.0;" width="107" x="564.5" y="76.4297"/><text fill="#000000" font-family="sans-serif" font-size="13" font-weight="bold" lengthAdjust="spacing" textLength="88" x="570.5" y="92.4966">ETL Process</text><polygon fill="#181818" points="533.5,126.6953,543.5,130.6953,533.5,134.6953,537.5,130.6953" style="stroke:#181818;stroke-width:1.0;"/><line style="stroke:#181818;stroke-width:1.0;" x1="325.5" x2="539.5" y1="130.6953" y2="130.6953"/><text fill="#000000" font-family="sans-serif" font-size="13" lengthAdjust="spacing" textLength="160" x="332.5" y="125.6294">Schedule Extraction Task</text><polygon fill="#181818" points="70.5,155.8281,60.5,159.8281,70.5,163.8281,66.5,159.8281" style="stroke:#181818;stroke-width:1.0;"/><line style="stroke:#181818;stroke-width:1.0;" x1="64.5" x2="544.5" y1="159.8281" y2="159.8281"/><text fill="#000000" font-family="sans-serif" font-size="13" lengthAdjust="spacing" textLength="119" x="76.5" y="154.7622">Fetch Sensor Data</text><polygon fill="#181818" points="533.5,184.9609,543.5,188.9609,533.5,192.9609,537.5,188.9609" style="stroke:#181818;stroke-width:1.0;"/><line style="stroke:#181818;stroke-width:1.0;" x1="54.5" x2="539.5" y1="188.9609" y2="188.9609"/><text fill="#000000" font-family="sans-serif" font-size="13" lengthAdjust="spacing" textLength="126" x="61.5" y="183.895">Return Sensor Data</text><polygon fill="#181818" points="336.5,214.0938,326.5,218.0938,336.5,222.0938,332.5,218.0938" style="stroke:#181818;stroke-width:1.0;"/><line style="stroke:#181818;stroke-width:1.0;" x1="330.5" x2="549.5" y1="218.0938" y2="218.0938"/><text fill="#000000" font-family="sans-serif" font-size="13" lengthAdjust="spacing" textLength="163" x="342.5" y="213.0278">Complete Extraction Task</text><polygon fill="#181818" points="533.5,243.2266,543.5,247.2266,533.5,251.2266,537.5,247.2266" style="stroke:#181818;stroke-width:1.0;"/><line style="stroke:#181818;stroke-width:1.0;" x1="325.5" x2="539.5" y1="247.2266" y2="247.2266"/><text fill="#000000" font-family="sans-serif" font-size="13" lengthAdjust="spacing" textLength="193" x="332.5" y="242.1606">Schedule Transformation Task</text><line style="stroke:#181818;stroke-width:1.0;" x1="555.5" x2="597.5" y1="276.3594" y2="276.3594"/><line style="stroke:#181818;stroke-width:1.0;" x1="597.5" x2="597.5" y1="276.3594" y2="289.3594"/><line style="stroke:#181818;stroke-width:1.0;" x1="556.5" x2="597.5" y1="289.3594" y2="289.3594"/><polygon fill="#181818" points="566.5,285.3594,556.5,289.3594,566.5,293.3594,562.5,289.3594" style="stroke:#181818;stroke-width:1.0;"/><text fill="#000000" font-family="sans-serif" font-size="13" lengthAdjust="spacing" textLength="149" x="562.5" y="271.2935">Transform Sensor Data</text><polygon fill="#181818" points="336.5,314.4922,326.5,318.4922,336.5,322.4922,332.5,318.4922" style="stroke:#181818;stroke-width:1.0;"/><line style="stroke:#181818;stroke-width:1.0;" x1="330.5" x2="549.5" y1="318.4922" y2="318.4922"/><text fill="#000000" font-family="sans-serif" font-size="13" lengthAdjust="spacing" textLength="196" x="342.5" y="313.4263">Complete Transformation Task</text><polygon fill="#181818" points="533.5,343.625,543.5,347.625,533.5,351.625,537.5,347.625" style="stroke:#181818;stroke-width:1.0;"/><line style="stroke:#181818;stroke-width:1.0;" x1="325.5" x2="539.5" y1="347.625" y2="347.625"/><text fill="#000000" font-family="sans-serif" font-size="13" lengthAdjust="spacing" textLength="127" x="332.5" y="342.5591">Schedule Load Task</text><polygon fill="#181818" points="985.5,372.7578,995.5,376.7578,985.5,380.7578,989.5,376.7578" style="stroke:#181818;stroke-width:1.0;"/><line style="stroke:#181818;stroke-width:1.0;" x1="555.5" x2="991.5" y1="376.7578" y2="376.7578"/><text fill="#000000" font-family="sans-serif" font-size="13" lengthAdjust="spacing" textLength="289" x="562.5" y="371.6919">Load Transformed Data into Data Warehouse</text><polygon fill="#181818" points="336.5,401.8906,326.5,405.8906,336.5,409.8906,332.5,405.8906" style="stroke:#181818;stroke-width:1.0;"/><line style="stroke:#181818;stroke-width:1.0;" x1="330.5" x2="1001.5" y1="405.8906" y2="405.8906"/><text fill="#000000" font-family="sans-serif" font-size="13" lengthAdjust="spacing" textLength="153" x="342.5" y="400.8247">Acknowledge Data Load</text><polygon fill="#181818" points="336.5,431.0234,326.5,435.0234,336.5,439.0234,332.5,435.0234" style="stroke:#181818;stroke-width:1.0;"/><line style="stroke:#181818;stroke-width:1.0;" x1="330.5" x2="549.5" y1="435.0234" y2="435.0234"/><text fill="#000000" font-family="sans-serif" font-size="13" lengthAdjust="spacing" textLength="130" x="342.5" y="429.9575">Complete Load Task</text><rect fill="#EEEEEE" height="3" style="stroke:#EEEEEE;stroke-width:1.0;" width="1236" x="0" y="463.5898"/><line style="stroke:#000000;stroke-width:1.0;" x1="0" x2="1236" y1="463.5898" y2="463.5898"/><line style="stroke:#000000;stroke-width:1.0;" x1="0" x2="1236" y1="466.5898" y2="466.5898"/><rect fill="#EEEEEE" height="23.1328" style="stroke:#000000;stroke-width:2.0;" width="142" x="547" y="453.0234"/><text fill="#000000" font-family="sans-serif" font-size="13" font-weight="bold" lengthAdjust="spacing" textLength="123" x="553" y="469.0903">Analysis Process</text><polygon fill="#181818" points="706.5,503.2891,716.5,507.2891,706.5,511.2891,710.5,507.2891" style="stroke:#181818;stroke-width:1.0;"/><line style="stroke:#181818;stroke-width:1.0;" x1="325.5" x2="712.5" y1="507.2891" y2="507.2891"/><text fill="#000000" font-family="sans-serif" font-size="13" lengthAdjust="spacing" textLength="148" x="332.5" y="502.2231">Schedule Analysis Task</text><polygon fill="#181818" points="985.5,532.4219,995.5,536.4219,985.5,540.4219,989.5,536.4219" style="stroke:#181818;stroke-width:1.0;"/><line style="stroke:#181818;stroke-width:1.0;" x1="728.5" x2="991.5" y1="536.4219" y2="536.4219"/><text fill="#000000" font-family="sans-serif" font-size="13" lengthAdjust="spacing" textLength="155" x="735.5" y="531.356">Fetch Transformed Data</text><polygon fill="#181818" points="739.5,561.5547,729.5,565.5547,739.5,569.5547,735.5,565.5547" style="stroke:#181818;stroke-width:1.0;"/><line style="stroke:#181818;stroke-width:1.0;" x1="733.5" x2="1001.5" y1="565.5547" y2="565.5547"/><text fill="#000000" font-family="sans-serif" font-size="13" lengthAdjust="spacing" textLength="162" x="745.5" y="560.4888">Return Transformed Data</text><line style="stroke:#181818;stroke-width:1.0;" x1="728.5" x2="770.5" y1="594.6875" y2="594.6875"/><line style="stroke:#181818;stroke-width:1.0;" x1="770.5" x2="770.5" y1="594.6875" y2="607.6875"/><line style="stroke:#181818;stroke-width:1.0;" x1="729.5" x2="770.5" y1="607.6875" y2="607.6875"/><polygon fill="#181818" points="739.5,603.6875,729.5,607.6875,739.5,611.6875,735.5,607.6875" style="stroke:#181818;stroke-width:1.0;"/><text fill="#000000" font-family="sans-serif" font-size="13" lengthAdjust="spacing" textLength="255" x="735.5" y="589.6216">Analyze Vaccine Production Parameters</text><polygon fill="#181818" points="1137,632.8203,1147,636.8203,1137,640.8203,1141,636.8203" style="stroke:#181818;stroke-width:1.0;"/><line style="stroke:#181818;stroke-width:1.0;" x1="728.5" x2="1143" y1="636.8203" y2="636.8203"/><text fill="#000000" font-family="sans-serif" font-size="13" lengthAdjust="spacing" textLength="182" x="735.5" y="631.7544">Update Analytics Dashboard</text><polygon fill="#181818" points="336.5,661.9531,326.5,665.9531,336.5,669.9531,332.5,665.9531" style="stroke:#181818;stroke-width:1.0;"/><line style="stroke:#181818;stroke-width:1.0;" x1="330.5" x2="1153" y1="665.9531" y2="665.9531"/><text fill="#000000" font-family="sans-serif" font-size="13" lengthAdjust="spacing" textLength="208" x="342.5" y="660.8872">Acknowledge Dashboard Update</text><polygon fill="#181818" points="331.5,691.0859,321.5,695.0859,331.5,699.0859,327.5,695.0859" style="stroke:#181818;stroke-width:1.0;"/><line style="stroke:#181818;stroke-width:1.0;" x1="325.5" x2="722.5" y1="695.0859" y2="695.0859"/><text fill="#000000" font-family="sans-serif" font-size="13" lengthAdjust="spacing" textLength="151" x="337.5" y="690.02">Complete Analysis Task</text><!--MD5=[4c70ad73a146a7966c02e026f6bca077]
@startuml
box "Data Sources" #LightBlue
  participant "Sensor Data" as SD
  participant "Manufacturing Logs" as ML
end box

box "Flink Cluster" #LightGreen
  participant "JobManager" as JM
  participant "TaskManager ETL" as TME
  participant "TaskManager Analysis" as TMA
end box

box "Data Warehouse" #LightYellow
  participant "Data Warehouse" as DW
end box

box "Analytics" #LightPink
  participant "Analytics Dashboard" as AD
end box

activate JM

== ETL Process ==

JM -> TME: Schedule Extraction Task
activate TME

TME -> SD: Fetch Sensor Data
activate SD
SD -> TME: Return Sensor Data
deactivate SD

TME -> JM: Complete Extraction Task
deactivate TME

JM -> TME: Schedule Transformation Task
activate TME

TME -> TME: Transform Sensor Data

TME -> JM: Complete Transformation Task
deactivate TME

JM -> TME: Schedule Load Task
activate TME

TME -> DW: Load Transformed Data into Data Warehouse
activate DW
DW -> JM: Acknowledge Data Load
deactivate DW

TME -> JM: Complete Load Task
deactivate TME

== Analysis Process ==

JM -> TMA: Schedule Analysis Task
activate TMA

TMA -> DW: Fetch Transformed Data
activate DW
DW -> TMA: Return Transformed Data
deactivate DW

TMA -> TMA: Analyze Vaccine Production Parameters

TMA -> AD: Update Analytics Dashboard
activate AD
AD -> JM: Acknowledge Dashboard Update
deactivate AD

TMA -> JM: Complete Analysis Task
deactivate TMA

deactivate JM
@enduml

PlantUML version 1.2022.7(Mon Aug 22 17:01:30 UTC 2022)
(GPL source distribution)
Java Runtime: OpenJDK Runtime Environment
JVM: OpenJDK 64-Bit Server VM
Default Encoding: UTF-8
Language: en
Country: null
--></g></svg>