<?xml version="1.0" encoding="us-ascii" standalone="no"?><svg xmlns="http://www.w3.org/2000/svg" xmlns:xlink="http://www.w3.org/1999/xlink" contentStyleType="text/css" height="1261px" preserveAspectRatio="none" style="width:1687px;height:1261px;background:#FFFFFF;" version="1.1" viewBox="0 0 1687 1261" width="1687px" zoomAndPan="magnify"><defs/><g><text fill="#000000" font-family="sans-serif" font-size="14" font-weight="bold" lengthAdjust="spacing" textLength="451" x="615.25" y="27.9951">Apache Flink Stateful Stream Processing Checkpointing</text><rect fill="#ADD8E6" height="1211.7734" style="stroke:#181818;stroke-width:0.5;" width="75" x="1" y="43.2969"/><text fill="#000000" font-family="sans-serif" font-size="13" font-weight="bold" lengthAdjust="spacing" textLength="33" x="22" y="55.3638">flink</text><rect fill="#90EE90" height="1211.7734" style="stroke:#181818;stroke-width:0.5;" width="789" x="83" y="43.2969"/><text fill="#000000" font-family="sans-serif" font-size="13" font-weight="bold" lengthAdjust="spacing" textLength="106" x="424.5" y="55.3638">Checkpoint.ss</text><rect fill="#FFFFE0" height="1211.7734" style="stroke:#181818;stroke-width:0.5;" width="807.5" x="874" y="43.2969"/><text fill="#000000" font-family="sans-serif" font-size="13" font-weight="bold" lengthAdjust="spacing" textLength="84" x="1235.75" y="55.3638">Runtime.ss</text><rect fill="#FFFFFF" height="640.9219" style="stroke:#181818;stroke-width:1.0;" width="10" x="183.5" y="124.8594"/><rect fill="#FFFFFF" height="320.4609" style="stroke:#181818;stroke-width:1.0;" width="10" x="183.5" y="882.3125"/><rect fill="#FFFFFF" height="291.3281" style="stroke:#181818;stroke-width:1.0;" width="10" x="606.5" y="153.9922"/><rect fill="#FFFFFF" height="87.3984" style="stroke:#181818;stroke-width:1.0;" width="10" x="606.5" y="503.5859"/><rect fill="#FFFFFF" height="58.2656" style="stroke:#181818;stroke-width:1.0;" width="10" x="606.5" y="707.5156"/><rect fill="#FFFFFF" height="87.3984" style="stroke:#181818;stroke-width:1.0;" width="10" x="606.5" y="1115.375"/><rect fill="#FFFFFF" height="912.1172" style="stroke:#181818;stroke-width:1.0;" width="10" x="817.5" y="299.6563"/><rect fill="#FFFFFF" height="58.2656" style="stroke:#181818;stroke-width:1.0;" width="10" x="1636" y="969.7109"/><rect fill="#FFFFFF" height="29.1328" style="stroke:#181818;stroke-width:1.0;" width="10" x="1636" y="1086.2422"/><line style="stroke:#181818;stroke-width:0.5;stroke-dasharray:5.0,5.0;" x1="38" x2="38" y1="93.7266" y2="1220.7734"/><line style="stroke:#181818;stroke-width:0.5;stroke-dasharray:5.0,5.0;" x1="188" x2="188" y1="93.7266" y2="1220.7734"/><line style="stroke:#181818;stroke-width:0.5;stroke-dasharray:5.0,5.0;" x1="398" x2="398" y1="93.7266" y2="1220.7734"/><line style="stroke:#181818;stroke-width:0.5;stroke-dasharray:5.0,5.0;" x1="611" x2="611" y1="93.7266" y2="1220.7734"/><line style="stroke:#181818;stroke-width:0.5;stroke-dasharray:5.0,5.0;" x1="822" x2="822" y1="93.7266" y2="1220.7734"/><line style="stroke:#181818;stroke-width:0.5;stroke-dasharray:5.0,5.0;" x1="930" x2="930" y1="93.7266" y2="1220.7734"/><line style="stroke:#181818;stroke-width:0.5;stroke-dasharray:5.0,5.0;" x1="1067" x2="1067" y1="93.7266" y2="1220.7734"/><line style="stroke:#181818;stroke-width:0.5;stroke-dasharray:5.0,5.0;" x1="1254" x2="1254" y1="93.7266" y2="1220.7734"/><line style="stroke:#181818;stroke-width:0.5;stroke-dasharray:5.0,5.0;" x1="1379" x2="1379" y1="93.7266" y2="1220.7734"/><line style="stroke:#181818;stroke-width:0.5;stroke-dasharray:5.0,5.0;" x1="1521.5" x2="1521.5" y1="93.7266" y2="1220.7734"/><line style="stroke:#181818;stroke-width:0.5;stroke-dasharray:5.0,5.0;" x1="1640.5" x2="1640.5" y1="93.7266" y2="1220.7734"/><rect fill="#E2E2F0" height="30.2969" rx="2.5" ry="2.5" style="stroke:#181818;stroke-width:0.5;" width="67" x="5" y="62.4297"/><text fill="#000000" font-family="sans-serif" font-size="14" lengthAdjust="spacing" textLength="53" x="12" y="82.4248">Core.ss</text><rect fill="#E2E2F0" height="30.2969" rx="2.5" ry="2.5" style="stroke:#181818;stroke-width:0.5;" width="67" x="5" y="1219.7734"/><text fill="#000000" font-family="sans-serif" font-size="14" lengthAdjust="spacing" textLength="53" x="12" y="1239.7686">Core.ss</text><rect fill="#E2E2F0" height="30.2969" rx="2.5" ry="2.5" style="stroke:#181818;stroke-width:0.5;" width="203" x="87" y="62.4297"/><text fill="#000000" font-family="sans-serif" font-size="14" lengthAdjust="spacing" textLength="189" x="94" y="82.4248">CheckpointCoordinator.ss</text><rect fill="#E2E2F0" height="30.2969" rx="2.5" ry="2.5" style="stroke:#181818;stroke-width:0.5;" width="203" x="87" y="1219.7734"/><text fill="#000000" font-family="sans-serif" font-size="14" lengthAdjust="spacing" textLength="189" x="94" y="1239.7686">CheckpointCoordinator.ss</text><rect fill="#E2E2F0" height="30.2969" rx="2.5" ry="2.5" style="stroke:#181818;stroke-width:0.5;" width="103" x="347" y="62.4297"/><text fill="#000000" font-family="sans-serif" font-size="14" lengthAdjust="spacing" textLength="89" x="354" y="82.4248">MetaData.ss</text><rect fill="#E2E2F0" height="30.2969" rx="2.5" ry="2.5" style="stroke:#181818;stroke-width:0.5;" width="103" x="347" y="1219.7734"/><text fill="#000000" font-family="sans-serif" font-size="14" lengthAdjust="spacing" textLength="89" x="354" y="1239.7686">MetaData.ss</text><rect fill="#E2E2F0" height="30.2969" rx="2.5" ry="2.5" style="stroke:#181818;stroke-width:0.5;" width="77" x="573" y="62.4297"/><text fill="#000000" font-family="sans-serif" font-size="14" lengthAdjust="spacing" textLength="63" x="580" y="82.4248">Hooks.ss</text><rect fill="#E2E2F0" height="30.2969" rx="2.5" ry="2.5" style="stroke:#181818;stroke-width:0.5;" width="77" x="573" y="1219.7734"/><text fill="#000000" font-family="sans-serif" font-size="14" lengthAdjust="spacing" textLength="63" x="580" y="1239.7686">Hooks.ss</text><rect fill="#E2E2F0" height="30.2969" rx="2.5" ry="2.5" style="stroke:#181818;stroke-width:0.5;" width="91" x="777" y="62.4297"/><text fill="#000000" font-family="sans-serif" font-size="14" lengthAdjust="spacing" textLength="77" x="784" y="82.4248">Channel.ss</text><rect fill="#E2E2F0" height="30.2969" rx="2.5" ry="2.5" style="stroke:#181818;stroke-width:0.5;" width="91" x="777" y="1219.7734"/><text fill="#000000" font-family="sans-serif" font-size="14" lengthAdjust="spacing" textLength="77" x="784" y="1239.7686">Channel.ss</text><rect fill="#E2E2F0" height="30.2969" rx="2.5" ry="2.5" style="stroke:#181818;stroke-width:0.5;" width="105" x="878" y="62.4297"/><text fill="#000000" font-family="sans-serif" font-size="14" lengthAdjust="spacing" textLength="91" x="885" y="82.4248">JobMaster.ss</text><rect fill="#E2E2F0" height="30.2969" rx="2.5" ry="2.5" style="stroke:#181818;stroke-width:0.5;" width="105" x="878" y="1219.7734"/><text fill="#000000" font-family="sans-serif" font-size="14" lengthAdjust="spacing" textLength="91" x="885" y="1239.7686">JobMaster.ss</text><rect fill="#E2E2F0" height="30.2969" rx="2.5" ry="2.5" style="stroke:#181818;stroke-width:0.5;" width="148" x="993" y="62.4297"/><text fill="#000000" font-family="sans-serif" font-size="14" lengthAdjust="spacing" textLength="134" x="1000" y="82.4248">ExecutionGraph.ss</text><rect fill="#E2E2F0" height="30.2969" rx="2.5" ry="2.5" style="stroke:#181818;stroke-width:0.5;" width="148" x="993" y="1219.7734"/><text fill="#000000" font-family="sans-serif" font-size="14" lengthAdjust="spacing" textLength="134" x="1000" y="1239.7686">ExecutionGraph.ss</text><rect fill="#E2E2F0" height="30.2969" rx="2.5" ry="2.5" style="stroke:#181818;stroke-width:0.5;" width="100" x="1204" y="62.4297"/><text fill="#000000" font-family="sans-serif" font-size="14" lengthAdjust="spacing" textLength="86" x="1211" y="82.4248">JobGraph.ss</text><rect fill="#E2E2F0" height="30.2969" rx="2.5" ry="2.5" style="stroke:#181818;stroke-width:0.5;" width="100" x="1204" y="1219.7734"/><text fill="#000000" font-family="sans-serif" font-size="14" lengthAdjust="spacing" textLength="86" x="1211" y="1239.7686">JobGraph.ss</text><rect fill="#E2E2F0" height="30.2969" rx="2.5" ry="2.5" style="stroke:#181818;stroke-width:0.5;" width="130" x="1314" y="62.4297"/><text fill="#000000" font-family="sans-serif" font-size="14" lengthAdjust="spacing" textLength="116" x="1321" y="82.4248">TaskExecutor.ss</text><rect fill="#E2E2F0" height="30.2969" rx="2.5" ry="2.5" style="stroke:#181818;stroke-width:0.5;" width="130" x="1314" y="1219.7734"/><text fill="#000000" font-family="sans-serif" font-size="14" lengthAdjust="spacing" textLength="116" x="1321" y="1239.7686">TaskExecutor.ss</text><rect fill="#E2E2F0" height="30.2969" rx="2.5" ry="2.5" style="stroke:#181818;stroke-width:0.5;" width="127" x="1458.5" y="62.4297"/><text fill="#000000" font-family="sans-serif" font-size="14" lengthAdjust="spacing" textLength="113" x="1465.5" y="82.4248">TaskManager.ss</text><rect fill="#E2E2F0" height="30.2969" rx="2.5" ry="2.5" style="stroke:#181818;stroke-width:0.5;" width="127" x="1458.5" y="1219.7734"/><text fill="#000000" font-family="sans-serif" font-size="14" lengthAdjust="spacing" textLength="113" x="1465.5" y="1239.7686">TaskManager.ss</text><rect fill="#E2E2F0" height="30.2969" rx="2.5" ry="2.5" style="stroke:#181818;stroke-width:0.5;" width="73" x="1604.5" y="62.4297"/><text fill="#000000" font-family="sans-serif" font-size="14" lengthAdjust="spacing" textLength="59" x="1611.5" y="82.4248">State.ss</text><rect fill="#E2E2F0" height="30.2969" rx="2.5" ry="2.5" style="stroke:#181818;stroke-width:0.5;" width="73" x="1604.5" y="1219.7734"/><text fill="#000000" font-family="sans-serif" font-size="14" lengthAdjust="spacing" textLength="59" x="1611.5" y="1239.7686">State.ss</text><rect fill="#FFFFFF" height="640.9219" style="stroke:#181818;stroke-width:1.0;" width="10" x="183.5" y="124.8594"/><rect fill="#FFFFFF" height="320.4609" style="stroke:#181818;stroke-width:1.0;" width="10" x="183.5" y="882.3125"/><rect fill="#FFFFFF" height="291.3281" style="stroke:#181818;stroke-width:1.0;" width="10" x="606.5" y="153.9922"/><rect fill="#FFFFFF" height="87.3984" style="stroke:#181818;stroke-width:1.0;" width="10" x="606.5" y="503.5859"/><rect fill="#FFFFFF" height="58.2656" style="stroke:#181818;stroke-width:1.0;" width="10" x="606.5" y="707.5156"/><rect fill="#FFFFFF" height="87.3984" style="stroke:#181818;stroke-width:1.0;" width="10" x="606.5" y="1115.375"/><rect fill="#FFFFFF" height="912.1172" style="stroke:#181818;stroke-width:1.0;" width="10" x="817.5" y="299.6563"/><rect fill="#FFFFFF" height="58.2656" style="stroke:#181818;stroke-width:1.0;" width="10" x="1636" y="969.7109"/><rect fill="#FFFFFF" height="29.1328" style="stroke:#181818;stroke-width:1.0;" width="10" x="1636" y="1086.2422"/><polygon fill="#181818" points="171.5,120.8594,181.5,124.8594,171.5,128.8594,175.5,124.8594" style="stroke:#181818;stroke-width:1.0;"/><line style="stroke:#181818;stroke-width:1.0;" x1="38.5" x2="177.5" y1="124.8594" y2="124.8594"/><text fill="#000000" font-family="sans-serif" font-size="13" lengthAdjust="spacing" textLength="126" x="45.5" y="119.7935">TriggerCheckpoint()</text><polygon fill="#181818" points="594.5,149.9922,604.5,153.9922,594.5,157.9922,598.5,153.9922" style="stroke:#181818;stroke-width:1.0;"/><line style="stroke:#181818;stroke-width:1.0;" x1="193.5" x2="600.5" y1="153.9922" y2="153.9922"/><text fill="#000000" font-family="sans-serif" font-size="13" lengthAdjust="spacing" textLength="193" x="200.5" y="148.9263">ExecutePreCheckpointHooks()</text><polygon fill="#181818" points="1629,179.125,1639,183.125,1629,187.125,1633,183.125" style="stroke:#181818;stroke-width:1.0;"/><line style="stroke:#181818;stroke-width:1.0;" x1="616.5" x2="1635" y1="183.125" y2="183.125"/><text fill="#000000" font-family="sans-serif" font-size="13" lengthAdjust="spacing" textLength="120" x="623.5" y="178.0591">AccessStateData()</text><polygon fill="#181818" points="627.5,208.2578,617.5,212.2578,627.5,216.2578,623.5,212.2578" style="stroke:#181818;stroke-width:1.0;"/><line style="stroke:#181818;stroke-width:1.0;stroke-dasharray:2.0,2.0;" x1="621.5" x2="1640" y1="212.2578" y2="212.2578"/><text fill="#000000" font-family="sans-serif" font-size="13" lengthAdjust="spacing" textLength="65" x="633.5" y="207.1919">StateData</text><polygon fill="#181818" points="409.5,237.3906,399.5,241.3906,409.5,245.3906,405.5,241.3906" style="stroke:#181818;stroke-width:1.0;"/><line style="stroke:#181818;stroke-width:1.0;" x1="403.5" x2="605.5" y1="241.3906" y2="241.3906"/><text fill="#000000" font-family="sans-serif" font-size="13" lengthAdjust="spacing" textLength="184" x="415.5" y="236.3247">CollectCheckpointMetadata()</text><polygon fill="#181818" points="594.5,266.5234,604.5,270.5234,594.5,274.5234,598.5,270.5234" style="stroke:#181818;stroke-width:1.0;"/><line style="stroke:#181818;stroke-width:1.0;stroke-dasharray:2.0,2.0;" x1="398.5" x2="600.5" y1="270.5234" y2="270.5234"/><text fill="#000000" font-family="sans-serif" font-size="13" lengthAdjust="spacing" textLength="60" x="405.5" y="265.4575">Metadata</text><polygon fill="#181818" points="805.5,295.6563,815.5,299.6563,805.5,303.6563,809.5,299.6563" style="stroke:#181818;stroke-width:1.0;"/><line style="stroke:#181818;stroke-width:1.0;" x1="616.5" x2="811.5" y1="299.6563" y2="299.6563"/><text fill="#000000" font-family="sans-serif" font-size="13" lengthAdjust="spacing" textLength="126" x="623.5" y="294.5903">StartDataTransfer()</text><polygon fill="#181818" points="627.5,324.7891,617.5,328.7891,627.5,332.7891,623.5,328.7891" style="stroke:#181818;stroke-width:1.0;"/><line style="stroke:#181818;stroke-width:1.0;stroke-dasharray:2.0,2.0;" x1="621.5" x2="816.5" y1="328.7891" y2="328.7891"/><text fill="#000000" font-family="sans-serif" font-size="13" lengthAdjust="spacing" textLength="157" x="633.5" y="323.7231">DataTransferComplete()</text><polygon fill="#181818" points="409.5,353.9219,399.5,357.9219,409.5,361.9219,405.5,357.9219" style="stroke:#181818;stroke-width:1.0;"/><line style="stroke:#181818;stroke-width:1.0;" x1="403.5" x2="605.5" y1="357.9219" y2="357.9219"/><text fill="#000000" font-family="sans-serif" font-size="13" lengthAdjust="spacing" textLength="143" x="415.5" y="352.856">CompleteCheckpoint()</text><polygon fill="#181818" points="594.5,383.0547,604.5,387.0547,594.5,391.0547,598.5,387.0547" style="stroke:#181818;stroke-width:1.0;"/><line style="stroke:#181818;stroke-width:1.0;stroke-dasharray:2.0,2.0;" x1="398.5" x2="600.5" y1="387.0547" y2="387.0547"/><text fill="#000000" font-family="sans-serif" font-size="13" lengthAdjust="spacing" textLength="60" x="405.5" y="381.9888">Metadata</text><polygon fill="#181818" points="1629,412.1875,1639,416.1875,1629,420.1875,1633,416.1875" style="stroke:#181818;stroke-width:1.0;"/><line style="stroke:#181818;stroke-width:1.0;" x1="616.5" x2="1635" y1="416.1875" y2="416.1875"/><text fill="#000000" font-family="sans-serif" font-size="13" lengthAdjust="spacing" textLength="200" x="623.5" y="411.1216">ExecutePostCheckpointHooks()</text><polygon fill="#181818" points="622.5,441.3203,612.5,445.3203,622.5,449.3203,618.5,445.3203" style="stroke:#181818;stroke-width:1.0;"/><line style="stroke:#181818;stroke-width:1.0;stroke-dasharray:2.0,2.0;" x1="616.5" x2="1640" y1="445.3203" y2="445.3203"/><text fill="#000000" font-family="sans-serif" font-size="13" lengthAdjust="spacing" textLength="153" x="628.5" y="440.2544">Post-checkpoint Actions</text><polygon fill="#181818" points="386.5,470.4531,396.5,474.4531,386.5,478.4531,390.5,474.4531" style="stroke:#181818;stroke-width:1.0;"/><line style="stroke:#181818;stroke-width:1.0;" x1="193.5" x2="392.5" y1="474.4531" y2="474.4531"/><text fill="#000000" font-family="sans-serif" font-size="13" lengthAdjust="spacing" textLength="126" x="200.5" y="469.3872">TriggerCheckpoint()</text><polygon fill="#181818" points="594.5,499.5859,604.5,503.5859,594.5,507.5859,598.5,503.5859" style="stroke:#181818;stroke-width:1.0;"/><line style="stroke:#181818;stroke-width:1.0;" x1="193.5" x2="600.5" y1="503.5859" y2="503.5859"/><text fill="#000000" font-family="sans-serif" font-size="13" lengthAdjust="spacing" textLength="164" x="200.5" y="498.52">NotifyCheckpointTrigger()</text><polygon fill="#181818" points="805.5,528.7188,815.5,532.7188,805.5,536.7188,809.5,532.7188" style="stroke:#181818;stroke-width:1.0;"/><line style="stroke:#181818;stroke-width:1.0;" x1="616.5" x2="811.5" y1="532.7188" y2="532.7188"/><text fill="#000000" font-family="sans-serif" font-size="13" lengthAdjust="spacing" textLength="126" x="623.5" y="527.6528">TriggerCheckpoint()</text><polygon fill="#181818" points="627.5,557.8516,617.5,561.8516,627.5,565.8516,623.5,561.8516" style="stroke:#181818;stroke-width:1.0;"/><line style="stroke:#181818;stroke-width:1.0;stroke-dasharray:2.0,2.0;" x1="621.5" x2="816.5" y1="561.8516" y2="561.8516"/><text fill="#000000" font-family="sans-serif" font-size="13" lengthAdjust="spacing" textLength="177" x="633.5" y="556.7856">ConfirmCheckpointTrigger()</text><polygon fill="#181818" points="204.5,586.9844,194.5,590.9844,204.5,594.9844,200.5,590.9844" style="stroke:#181818;stroke-width:1.0;"/><line style="stroke:#181818;stroke-width:1.0;stroke-dasharray:2.0,2.0;" x1="198.5" x2="610.5" y1="590.9844" y2="590.9844"/><text fill="#000000" font-family="sans-serif" font-size="13" lengthAdjust="spacing" textLength="226" x="210.5" y="585.9185">NotifyCheckpointTriggerComplete()</text><polygon fill="#181818" points="805.5,616.1172,815.5,620.1172,805.5,624.1172,809.5,620.1172" style="stroke:#181818;stroke-width:1.0;"/><line style="stroke:#181818;stroke-width:1.0;" x1="193.5" x2="811.5" y1="620.1172" y2="620.1172"/><text fill="#000000" font-family="sans-serif" font-size="13" lengthAdjust="spacing" textLength="126" x="200.5" y="615.0513">StartDataTransfer()</text><polygon fill="#181818" points="204.5,645.25,194.5,649.25,204.5,653.25,200.5,649.25" style="stroke:#181818;stroke-width:1.0;"/><line style="stroke:#181818;stroke-width:1.0;" x1="198.5" x2="816.5" y1="649.25" y2="649.25"/><text fill="#000000" font-family="sans-serif" font-size="13" lengthAdjust="spacing" textLength="157" x="210.5" y="644.1841">DataTransferComplete()</text><polygon fill="#181818" points="386.5,674.3828,396.5,678.3828,386.5,682.3828,390.5,678.3828" style="stroke:#181818;stroke-width:1.0;"/><line style="stroke:#181818;stroke-width:1.0;" x1="193.5" x2="392.5" y1="678.3828" y2="678.3828"/><text fill="#000000" font-family="sans-serif" font-size="13" lengthAdjust="spacing" textLength="181" x="200.5" y="673.3169">NotifyCheckpointComplete()</text><polygon fill="#181818" points="594.5,703.5156,604.5,707.5156,594.5,711.5156,598.5,707.5156" style="stroke:#181818;stroke-width:1.0;"/><line style="stroke:#181818;stroke-width:1.0;" x1="193.5" x2="600.5" y1="707.5156" y2="707.5156"/><text fill="#000000" font-family="sans-serif" font-size="13" lengthAdjust="spacing" textLength="181" x="200.5" y="702.4497">NotifyCheckpointComplete()</text><polygon fill="#181818" points="805.5,732.6484,815.5,736.6484,805.5,740.6484,809.5,736.6484" style="stroke:#181818;stroke-width:1.0;"/><line style="stroke:#181818;stroke-width:1.0;" x1="616.5" x2="811.5" y1="736.6484" y2="736.6484"/><text fill="#000000" font-family="sans-serif" font-size="13" lengthAdjust="spacing" textLength="143" x="623.5" y="731.5825">CompleteCheckpoint()</text><polygon fill="#181818" points="199.5,761.7813,189.5,765.7813,199.5,769.7813,195.5,765.7813" style="stroke:#181818;stroke-width:1.0;"/><line style="stroke:#181818;stroke-width:1.0;stroke-dasharray:2.0,2.0;" x1="193.5" x2="816.5" y1="765.7813" y2="765.7813"/><text fill="#000000" font-family="sans-serif" font-size="13" lengthAdjust="spacing" textLength="205" x="205.5" y="760.7153">ConfirmCheckpointCompletion()</text><polygon fill="#181818" points="199.5,790.9141,189.5,794.9141,199.5,798.9141,195.5,794.9141" style="stroke:#181818;stroke-width:1.0;"/><line style="stroke:#181818;stroke-width:1.0;" x1="193.5" x2="929.5" y1="794.9141" y2="794.9141"/><text fill="#000000" font-family="sans-serif" font-size="13" lengthAdjust="spacing" textLength="126" x="205.5" y="789.8481">TriggerCheckpoint()</text><polygon fill="#181818" points="1242,820.0469,1252,824.0469,1242,828.0469,1246,824.0469" style="stroke:#181818;stroke-width:1.0;"/><line style="stroke:#181818;stroke-width:1.0;" x1="188.5" x2="1248" y1="824.0469" y2="824.0469"/><text fill="#000000" font-family="sans-serif" font-size="13" lengthAdjust="spacing" textLength="131" x="195.5" y="818.981">DefineJobStructure()</text><polygon fill="#181818" points="1078,849.1797,1068,853.1797,1078,857.1797,1074,853.1797" style="stroke:#181818;stroke-width:1.0;"/><line style="stroke:#181818;stroke-width:1.0;" x1="1072" x2="1253" y1="853.1797" y2="853.1797"/><text fill="#000000" font-family="sans-serif" font-size="13" lengthAdjust="spacing" textLength="163" x="1084" y="848.1138">InitializeExecutionGraph()</text><polygon fill="#181818" points="204.5,878.3125,194.5,882.3125,204.5,886.3125,200.5,882.3125" style="stroke:#181818;stroke-width:1.0;"/><line style="stroke:#181818;stroke-width:1.0;" x1="198.5" x2="1066" y1="882.3125" y2="882.3125"/><text fill="#000000" font-family="sans-serif" font-size="13" lengthAdjust="spacing" textLength="165" x="210.5" y="877.2466">RegisterExecutionGraph()</text><polygon fill="#181818" points="1367,907.4453,1377,911.4453,1367,915.4453,1371,911.4453" style="stroke:#181818;stroke-width:1.0;"/><line style="stroke:#181818;stroke-width:1.0;" x1="193.5" x2="1373" y1="911.4453" y2="911.4453"/><text fill="#000000" font-family="sans-serif" font-size="13" lengthAdjust="spacing" textLength="133" x="200.5" y="906.3794">ExecuteCheckpoint()</text><polygon fill="#181818" points="1510,936.5781,1520,940.5781,1510,944.5781,1514,940.5781" style="stroke:#181818;stroke-width:1.0;"/><line style="stroke:#181818;stroke-width:1.0;" x1="1379" x2="1516" y1="940.5781" y2="940.5781"/><text fill="#000000" font-family="sans-serif" font-size="13" lengthAdjust="spacing" textLength="119" x="1386" y="935.5122">NotifyCheckpoint()</text><polygon fill="#181818" points="1624,965.7109,1634,969.7109,1624,973.7109,1628,969.7109" style="stroke:#181818;stroke-width:1.0;"/><line style="stroke:#181818;stroke-width:1.0;" x1="1522" x2="1630" y1="969.7109" y2="969.7109"/><text fill="#000000" font-family="sans-serif" font-size="13" lengthAdjust="spacing" textLength="95" x="1529" y="964.645">CaptureState()</text><polygon fill="#181818" points="838.5,994.8438,828.5,998.8438,838.5,1002.8438,834.5,998.8438" style="stroke:#181818;stroke-width:1.0;"/><line style="stroke:#181818;stroke-width:1.0;" x1="832.5" x2="1635" y1="998.8438" y2="998.8438"/><text fill="#000000" font-family="sans-serif" font-size="13" lengthAdjust="spacing" textLength="160" x="844.5" y="993.7778">StartStateDataTransfer()</text><polygon fill="#181818" points="204.5,1023.9766,194.5,1027.9766,204.5,1031.9766,200.5,1027.9766" style="stroke:#181818;stroke-width:1.0;"/><line style="stroke:#181818;stroke-width:1.0;" x1="198.5" x2="816.5" y1="1027.9766" y2="1027.9766"/><text fill="#000000" font-family="sans-serif" font-size="13" lengthAdjust="spacing" textLength="157" x="210.5" y="1022.9106">DataTransferComplete()</text><polygon fill="#181818" points="1629,1053.1094,1639,1057.1094,1629,1061.1094,1633,1057.1094" style="stroke:#181818;stroke-width:1.0;"/><line style="stroke:#181818;stroke-width:1.0;" x1="193.5" x2="1635" y1="1057.1094" y2="1057.1094"/><text fill="#000000" font-family="sans-serif" font-size="13" lengthAdjust="spacing" textLength="181" x="200.5" y="1052.0435">NotifyCheckpointComplete()</text><polygon fill="#181818" points="1624,1082.2422,1634,1086.2422,1624,1090.2422,1628,1086.2422" style="stroke:#181818;stroke-width:1.0;"/><line style="stroke:#181818;stroke-width:1.0;" x1="1522" x2="1630" y1="1086.2422" y2="1086.2422"/><text fill="#000000" font-family="sans-serif" font-size="13" lengthAdjust="spacing" textLength="94" x="1529" y="1081.1763">RestoreState()</text><polygon fill="#181818" points="204.5,1111.375,194.5,1115.375,204.5,1119.375,200.5,1115.375" style="stroke:#181818;stroke-width:1.0;"/><line style="stroke:#181818;stroke-width:1.0;" x1="198.5" x2="1640" y1="1115.375" y2="1115.375"/><text fill="#000000" font-family="sans-serif" font-size="13" lengthAdjust="spacing" textLength="201" x="210.5" y="1110.3091">StateRestorationConfirmation()</text><polygon fill="#181818" points="594.5,1140.5078,604.5,1144.5078,594.5,1148.5078,598.5,1144.5078" style="stroke:#181818;stroke-width:1.0;"/><line style="stroke:#181818;stroke-width:1.0;" x1="193.5" x2="600.5" y1="1144.5078" y2="1144.5078"/><text fill="#000000" font-family="sans-serif" font-size="13" lengthAdjust="spacing" textLength="181" x="200.5" y="1139.4419">NotifyCheckpointComplete()</text><polygon fill="#181818" points="805.5,1169.6406,815.5,1173.6406,805.5,1177.6406,809.5,1173.6406" style="stroke:#181818;stroke-width:1.0;"/><line style="stroke:#181818;stroke-width:1.0;" x1="616.5" x2="811.5" y1="1173.6406" y2="1173.6406"/><text fill="#000000" font-family="sans-serif" font-size="13" lengthAdjust="spacing" textLength="143" x="623.5" y="1168.5747">CompleteCheckpoint()</text><polygon fill="#181818" points="199.5,1198.7734,189.5,1202.7734,199.5,1206.7734,195.5,1202.7734" style="stroke:#181818;stroke-width:1.0;"/><line style="stroke:#181818;stroke-width:1.0;" x1="193.5" x2="816.5" y1="1202.7734" y2="1202.7734"/><text fill="#000000" font-family="sans-serif" font-size="13" lengthAdjust="spacing" textLength="205" x="205.5" y="1197.7075">ConfirmCheckpointCompletion()</text><!--SRC=[hLN1Rjim3BtxAuJsiXsy3yWXGEPkNOTbAB9STcGTEX6YI8OiRzs-Vf9ZMr8akKxNcosIJoJV4xcbYk62h6ee3qW-CygFv8S2XLNBz8T4E957AKfi6ihtf3XWUQm5vKh_PTcJU2OtbGcw8RVVwFwWFh8MCq9ga8gMj0QkI24aVcYQ3FcEw80-oY9fsn1zBn7vPVZeM0WXTvI34jBW-MvhL7072aBB5o6EJNXS781pP65ccrPNTq8dhP_8cFXz4VzLFAsXKHZ9vTCpbgsYWjzBg0-XNOScB5jeZkVeM8t6kWOE-zYb7MjUDNtZysMgXGkobNIlqQp3k_TPjYeL_QN1qgtFKfPyENHxqNS17oLQxyxgtJ6oamrV-N8eHUkoDChh_WsvEdAmvUvLeuEBuYXYeKN869RAPcAikpEau-YX3Yukg5LDTwjK9d0hWJSLIetbz6wKb_tquDt8GfngXWfDQv8Ld5qyhgv9tNPrO4OqAgGcsc3ZcfUZBp5b2gv9kqC8cKohmwie9huvmlek5At-MCyUvqLPkTp5xuxoL0XUKNcAtJTYJxsnHBekvT4kJlJY9HKwbKmabXBWJFekwt8WNiEYcy5i6gEFmkCnNNx0Qm-cXPtan3bC3qTtCrmxVDETSvQ6fWuhob4VwHNTbggLNTiSbtmPBA45UU1KKM3qB_f67HjuJoM-mJqrzGKe_xaxBhRVEAYy3bqudQFiLWo5rSTO5tSK5b2RxdK7dlB6TMe7OlZinhtpPc_F4PZD8DqnMyZ4SqfNly568yskFbLCvtF60YE7_cL1v2bPuDKrUsFUs7Zba7ZR6J5ZHFm3]--></g></svg>