<?xml version="1.0" encoding="us-ascii" standalone="no"?><svg xmlns="http://www.w3.org/2000/svg" xmlns:xlink="http://www.w3.org/1999/xlink" contentStyleType="text/css" height="667px" preserveAspectRatio="none" style="width:868px;height:667px;background:#FFFFFF;" version="1.1" viewBox="0 0 868 667" width="868px" zoomAndPan="magnify"><defs/><g><g id="Running"><rect fill="#F1F1F1" height="50" rx="12.5" ry="12.5" style="stroke:#181818;stroke-width:0.5;" width="78" x="565" y="103"/><line style="stroke:#181818;stroke-width:0.5;" x1="565" x2="643" y1="129.2969" y2="129.2969"/><text fill="#000000" font-family="sans-serif" font-size="14" lengthAdjust="spacing" textLength="58" x="575" y="120.9951">Running</text></g><g id="TriggeringCheckpoint"><rect fill="#F1F1F1" height="50" rx="12.5" ry="12.5" style="stroke:#181818;stroke-width:0.5;" width="182" x="513" y="230"/><line style="stroke:#181818;stroke-width:0.5;" x1="513" x2="695" y1="256.2969" y2="256.2969"/><text fill="#000000" font-family="sans-serif" font-size="14" lengthAdjust="spacing" textLength="162" x="523" y="247.9951">Triggering Checkpoint</text></g><g id="TakingCheckpoint"><rect fill="#F1F1F1" height="50" rx="12.5" ry="12.5" style="stroke:#181818;stroke-width:0.5;" width="156" x="352" y="357"/><line style="stroke:#181818;stroke-width:0.5;" x1="352" x2="508" y1="383.2969" y2="383.2969"/><text fill="#000000" font-family="sans-serif" font-size="14" lengthAdjust="spacing" textLength="136" x="362" y="374.9951">Taking Checkpoint</text></g><g id="SavingCheckpoint"><rect fill="#F1F1F1" height="50" rx="12.5" ry="12.5" style="stroke:#181818;stroke-width:0.5;" width="155" x="276.5" y="484"/><line style="stroke:#181818;stroke-width:0.5;" x1="276.5" x2="431.5" y1="510.2969" y2="510.2969"/><text fill="#000000" font-family="sans-serif" font-size="14" lengthAdjust="spacing" textLength="135" x="286.5" y="501.9951">Saving Checkpoint</text></g><g id="Completed"><rect fill="#F1F1F1" height="50" rx="12.5" ry="12.5" style="stroke:#181818;stroke-width:0.5;" width="101" x="43.5" y="611"/><line style="stroke:#181818;stroke-width:0.5;" x1="43.5" x2="144.5" y1="637.2969" y2="637.2969"/><text fill="#000000" font-family="sans-serif" font-size="14" lengthAdjust="spacing" textLength="81" x="53.5" y="628.9951">Completed</text></g><g id="Failed"><rect fill="#F1F1F1" height="50" rx="12.5" ry="12.5" style="stroke:#181818;stroke-width:0.5;" width="62" x="554" y="611"/><line style="stroke:#181818;stroke-width:0.5;" x1="554" x2="616" y1="637.2969" y2="637.2969"/><text fill="#000000" font-family="sans-serif" font-size="14" lengthAdjust="spacing" textLength="42" x="564" y="628.9951">Failed</text></g><ellipse cx="604" cy="16" fill="#222222" rx="10" ry="10" style="stroke:#222222;stroke-width:1.0;"/><!--link *start* to Running--><g id="link_*start*_Running"><path d="M604,26.002 C604,42.627 604,72.655 604,96.873 " fill="none" id="*start*-to-Running" style="stroke:#181818;stroke-width:1.0;"/><polygon fill="#181818" points="604,102.873,608,93.873,604,97.873,600,93.873,604,102.873" style="stroke:#181818;stroke-width:1.0;"/><text fill="#000000" font-family="sans-serif" font-size="13" lengthAdjust="spacing" textLength="71" x="605" y="69.0669">Initial State</text></g><!--link Running to TriggeringCheckpoint--><g id="link_Running_TriggeringCheckpoint"><path d="M604,153.101 C604,175.236 604,201.861 604,223.973 " fill="none" id="Running-to-TriggeringCheckpoint" style="stroke:#181818;stroke-width:1.0;"/><polygon fill="#181818" points="604,229.973,608,220.973,604,224.973,600,220.973,604,229.973" style="stroke:#181818;stroke-width:1.0;"/><text fill="#000000" font-family="sans-serif" font-size="13" lengthAdjust="spacing" textLength="102" x="605" y="196.0669">StartCheckpoint</text></g><!--link TriggeringCheckpoint to TakingCheckpoint--><g id="link_TriggeringCheckpoint_TakingCheckpoint"><path d="M570.451,280.101 C539.64,302.236 499.0979,331.3603 468.3189,353.4723 " fill="none" id="TriggeringCheckpoint-to-TakingCheckpoint" style="stroke:#181818;stroke-width:1.0;"/><polygon fill="#181818" points="463.446,356.973,473.0891,354.9705,467.5067,354.0557,468.4215,348.4733,463.446,356.973" style="stroke:#181818;stroke-width:1.0;"/><text fill="#000000" font-family="sans-serif" font-size="13" lengthAdjust="spacing" textLength="61" x="529" y="323.0669">Triggered</text></g><!--link TakingCheckpoint to SavingCheckpoint--><g id="link_TakingCheckpoint_SavingCheckpoint"><path d="M417.574,407.001 C410.182,420.918 400.432,438.668 391,454 C384.867,463.97 381.1016,469.731 374.7016,478.946 " fill="none" id="TakingCheckpoint-to-SavingCheckpoint" style="stroke:#181818;stroke-width:1.0;"/><polygon fill="#181818" points="371.279,483.874,379.6983,478.7637,374.1312,479.7673,373.1276,474.2002,371.279,483.874" style="stroke:#181818;stroke-width:1.0;"/><text fill="#000000" font-family="sans-serif" font-size="13" lengthAdjust="spacing" textLength="47" x="402" y="450.0669">Started</text></g><!--link SavingCheckpoint to TakingCheckpoint--><g id="link_SavingCheckpoint_TakingCheckpoint"><path d="M276.468,488.445 C245.514,476.739 220.819,459.679 238,437 C252.166,418.3 299.2359,405.4113 345.9539,396.3433 " fill="none" id="SavingCheckpoint-to-TakingCheckpoint" style="stroke:#181818;stroke-width:1.0;"/><polygon fill="#181818" points="351.844,395.2,342.2467,392.9882,346.9356,396.1527,343.7711,400.8416,351.844,395.2" style="stroke:#181818;stroke-width:1.0;"/><text fill="#000000" font-family="sans-serif" font-size="13" lengthAdjust="spacing" textLength="143" x="239" y="450.0669">Checkpoint Successful</text></g><!--link SavingCheckpoint to Failed--><g id="link_SavingCheckpoint_Failed"><path d="M350.249,534.173 C349.305,549.383 350.924,568.4403 362,581 C387.096,609.4572 492.3659,624.7819 547.6419,631.1101 " fill="none" id="SavingCheckpoint-to-Failed" style="stroke:#181818;stroke-width:1.0;"/><polygon fill="#181818" points="553.603,631.7925,545.1164,626.7948,548.6354,631.2238,544.2064,634.7429,553.603,631.7925" style="stroke:#181818;stroke-width:1.0;"/><text fill="#000000" font-family="sans-serif" font-size="13" lengthAdjust="spacing" textLength="112" x="363" y="577.0669">Checkpoint Failed</text></g><!--link TakingCheckpoint to Failed--><g id="link_TakingCheckpoint_Failed"><path d="M444.862,407.163 C474.489,455.33 537.4495,557.6923 567.0395,605.7997 " fill="none" id="TakingCheckpoint-to-Failed" style="stroke:#181818;stroke-width:1.0;"/><polygon fill="#181818" points="570.183,610.9103,568.8749,601.1487,567.5634,606.6514,562.0607,605.34,570.183,610.9103" style="stroke:#181818;stroke-width:1.0;"/><text fill="#000000" font-family="sans-serif" font-size="13" lengthAdjust="spacing" textLength="112" x="522" y="513.5669">Checkpoint Failed</text></g><!--link TakingCheckpoint to Completed--><g id="link_TakingCheckpoint_Completed"><path d="M351.918,383.85 C277.123,389.309 167.653,410.432 112,484 C83.9671,521.057 85.236,572.5769 89.2264,604.8798 " fill="none" id="TakingCheckpoint-to-Completed" style="stroke:#181818;stroke-width:1.0;"/><polygon fill="#181818" points="89.962,610.8345,92.8284,601.412,89.349,605.8722,84.8888,602.3928,89.962,610.8345" style="stroke:#181818;stroke-width:1.0;"/><text fill="#000000" font-family="sans-serif" font-size="13" lengthAdjust="spacing" textLength="145" x="113" y="513.5669">Checkpoint Completed</text></g><!--link SavingCheckpoint to Completed--><g id="link_SavingCheckpoint_Completed"><path d="M276.302,532.675 C251.072,541.186 223.325,551.799 199,564 C172.839,577.1216 150.3503,592.2135 130.1383,607.1071 " fill="none" id="SavingCheckpoint-to-Completed" style="stroke:#181818;stroke-width:1.0;"/><polygon fill="#181818" points="125.308,610.6664,134.9263,608.5477,129.3332,607.7003,130.1806,602.1073,125.308,610.6664" style="stroke:#181818;stroke-width:1.0;"/><text fill="#000000" font-family="sans-serif" font-size="13" lengthAdjust="spacing" textLength="145" x="200" y="577.0669">Checkpoint Completed</text></g><!--link TriggeringCheckpoint to Failed--><g id="link_TriggeringCheckpoint_Failed"><path d="M613.759,280.189 C632.043,328.939 667.491,442.174 643,534 C635.392,562.5246 621.0756,586.4755 607.1876,605.993 " fill="none" id="TriggeringCheckpoint-to-Failed" style="stroke:#181818;stroke-width:1.0;"/><polygon fill="#181818" points="603.709,610.8817,612.1861,605.8678,606.6079,606.8078,605.6678,601.2296,603.709,610.8817" style="stroke:#181818;stroke-width:1.0;"/><text fill="#000000" font-family="sans-serif" font-size="13" lengthAdjust="spacing" textLength="112" x="653" y="450.0669">Checkpoint Failed</text></g><!--link Failed to Running--><g id="link_Failed_Running"><path d="M616.195,631.7948 C677.114,623.6313 806,596.1767 806,510 C806,254 806,254 806,254 C806,178.323 708.0972,148.0843 649.3112,136.3623 " fill="none" id="Failed-to-Running" style="stroke:#181818;stroke-width:1.0;"/><polygon fill="#181818" points="643.427,135.189,651.471,140.8717,648.3305,136.1668,653.0354,133.0262,643.427,135.189" style="stroke:#181818;stroke-width:1.0;"/><text fill="#000000" font-family="sans-serif" font-size="13" lengthAdjust="spacing" textLength="53" x="807" y="386.5669">Recover</text></g><!--link Running to Completed--><g id="link_Running_Completed"><path d="M564.764,128.812 C431.725,129.214 6,139.452 6,254 C6,254 6,254 6,510 C6,550.871 33.3945,583.7802 58.7712,606.7225 " fill="none" id="Running-to-Completed" style="stroke:#181818;stroke-width:1.0;"/><polygon fill="#181818" points="63.2219,610.7463,59.2283,601.7435,59.5129,607.3931,53.8633,607.6778,63.2219,610.7463" style="stroke:#181818;stroke-width:1.0;"/><text fill="#000000" font-family="sans-serif" font-size="13" lengthAdjust="spacing" textLength="94" x="7" y="386.5669">Job Completed</text></g><!--SRC=[XP6z3eCW58Ltde8uDl457BgOD6b7xTPqe9HQ8WK3wFDN0KKGsmcuvplSFwMH9Z2hUiufRpA857HteAnqbRHfY1mZi7mJt7Q2Scr0htXXSQ4svJ3HBLsZ8K7Rw9OknQTZH9EdePRNB9yGPKwpLm1kXplCy-FSMW7Fd6gA6Amd2m0kRfXKLyK4Ihqg9KLPUzHYCNyurH6BnX6twPADVApi95W1TOynKUhLixJP3YImk1abIzl7q_ooYy3YDvIiwPzfVzO_ohDdkFIAO34G6MnxbVmY7lxv1G00]--></g></svg>