<?xml version="1.0" encoding="us-ascii" standalone="no"?><svg xmlns="http://www.w3.org/2000/svg" xmlns:xlink="http://www.w3.org/1999/xlink" contentStyleType="text/css" height="389px" preserveAspectRatio="none" style="width:740px;height:389px;background:#FFFFFF;" version="1.1" viewBox="0 0 740 389" width="740px" zoomAndPan="magnify"><defs/><g><path d="M19.5,7 L396.5,7 A12.5,12.5 0 0 1 409,19.5 L409,33.2969 L7,33.2969 L7,19.5 A12.5,12.5 0 0 1 19.5,7 " fill="#F1F1F1" style="stroke:#F1F1F1;stroke-width:1.0;"/><rect fill="none" height="376.2969" rx="12.5" ry="12.5" style="stroke:#181818;stroke-width:0.5;" width="402" x="7" y="7"/><line style="stroke:#181818;stroke-width:0.5;" x1="7" x2="409" y1="33.2969" y2="33.2969"/><text fill="#000000" font-family="sans-serif" font-size="14" lengthAdjust="spacing" textLength="196" x="110" y="24.9951">Stateful Stream Processing</text><ellipse cx="228" cy="54.2969" fill="#222222" rx="10" ry="10" style="stroke:#222222;stroke-width:1.0;"/><g id="StatefulProcessing.Running"><rect fill="#F1F1F1" height="50" rx="12.5" ry="12.5" style="stroke:#181818;stroke-width:0.5;" width="78" x="189" y="117.2969"/><line style="stroke:#181818;stroke-width:0.5;" x1="189" x2="267" y1="143.5938" y2="143.5938"/><text fill="#000000" font-family="sans-serif" font-size="14" lengthAdjust="spacing" textLength="58" x="199" y="135.292">Running</text></g><g id="StatefulProcessing.Checkpointing"><rect fill="#F1F1F1" height="50" rx="12.5" ry="12.5" style="stroke:#181818;stroke-width:0.5;" width="126" x="226" y="220.2969"/><line style="stroke:#181818;stroke-width:0.5;" x1="226" x2="352" y1="246.5938" y2="246.5938"/><text fill="#000000" font-family="sans-serif" font-size="14" lengthAdjust="spacing" textLength="106" x="236" y="238.292">Checkpointing</text></g><g id="StatefulProcessing.ProcessingData"><rect fill="#F1F1F1" height="50" rx="12.5" ry="12.5" style="stroke:#181818;stroke-width:0.5;" width="131" x="76.5" y="220.2969"/><line style="stroke:#181818;stroke-width:0.5;" x1="76.5" x2="207.5" y1="246.5938" y2="246.5938"/><text fill="#000000" font-family="sans-serif" font-size="14" lengthAdjust="spacing" textLength="111" x="86.5" y="238.292">ProcessingData</text></g><g id="StatefulProcessing.CheckpointComplete"><rect fill="#F1F1F1" height="50" rx="12.5" ry="12.5" style="stroke:#181818;stroke-width:0.5;" width="176" x="19" y="323.2969"/><line style="stroke:#181818;stroke-width:0.5;" x1="19" x2="195" y1="349.5938" y2="349.5938"/><text fill="#000000" font-family="sans-serif" font-size="14" lengthAdjust="spacing" textLength="156" x="29" y="341.292">CheckpointComplete</text></g><g id="StatefulProcessing.CheckpointFail"><rect fill="#F1F1F1" height="50" rx="12.5" ry="12.5" style="stroke:#181818;stroke-width:0.5;" width="128" x="272" y="323.2969"/><line style="stroke:#181818;stroke-width:0.5;" x1="272" x2="400" y1="349.5938" y2="349.5938"/><text fill="#000000" font-family="sans-serif" font-size="14" lengthAdjust="spacing" textLength="108" x="282" y="341.292">CheckpointFail</text></g><!--link *start*StatefulProcessing to Running--><g id="link_*start*StatefulProcessing_Running"><path d="M228,64.5009 C228,76.9799 228,93.7189 228,111.2269 " fill="none" id="*start*StatefulProcessing-to-Running" style="stroke:#181818;stroke-width:1.0;"/><polygon fill="#181818" points="228,117.2269,232,108.2269,228,112.2269,224,108.2269,228,117.2269" style="stroke:#181818;stroke-width:1.0;"/><text fill="#000000" font-family="sans-serif" font-size="13" lengthAdjust="spacing" textLength="54" x="229" y="95.3638">run data</text></g><!--link Running to Checkpointing--><g id="link_Running_Checkpointing"><path d="M242.611,167.4889 C252.198,183.3629 261.5889,198.912 271.1949,214.816 " fill="none" id="Running-to-Checkpointing" style="stroke:#181818;stroke-width:1.0;"/><polygon fill="#181818" points="274.297,219.9519,273.0678,210.18,271.7119,215.672,266.22,214.3161,274.297,219.9519" style="stroke:#181818;stroke-width:1.0;"/><text fill="#000000" font-family="sans-serif" font-size="13" lengthAdjust="spacing" textLength="88" x="264" y="198.3638">checkpointing</text></g><!--link Running to ProcessingData--><g id="link_Running_ProcessingData"><path d="M188.705,152.7669 C171.623,159.0289 153.214,169.1649 143,185.2969 C136.534,195.5109 135.2375,202.8718 136.3425,214.2788 " fill="none" id="Running-to-ProcessingData" style="stroke:#181818;stroke-width:1.0;"/><polygon fill="#181818" points="136.921,220.2509,140.0346,210.9071,136.4389,215.2742,132.0719,211.6785,136.921,220.2509" style="stroke:#181818;stroke-width:1.0;"/><text fill="#000000" font-family="sans-serif" font-size="13" lengthAdjust="spacing" textLength="69" x="144" y="198.3638">processing</text></g><!--link Checkpointing to CheckpointComplete--><g id="link_Checkpointing_CheckpointComplete"><path d="M245.406,270.4889 C216.697,286.421 184.5003,304.2884 155.7993,320.216 " fill="none" id="Checkpointing-to-CheckpointComplete" style="stroke:#181818;stroke-width:1.0;"/><polygon fill="#181818" points="150.553,323.1275,160.3634,322.2579,154.9249,320.7013,156.4815,315.2628,150.553,323.1275" style="stroke:#181818;stroke-width:1.0;"/><text fill="#000000" font-family="sans-serif" font-size="13" lengthAdjust="spacing" textLength="62" x="210" y="301.3638">Complete</text></g><!--link Checkpointing to CheckpointFail--><g id="link_Checkpointing_CheckpointFail"><path d="M300.258,270.4889 C307.644,286.3626 314.7386,301.6079 322.1396,317.5123 " fill="none" id="Checkpointing-to-CheckpointFail" style="stroke:#181818;stroke-width:1.0;"/><polygon fill="#181818" points="324.671,322.9522,324.5005,313.1048,322.5615,318.419,317.2473,316.48,324.671,322.9522" style="stroke:#181818;stroke-width:1.0;"/><text fill="#000000" font-family="sans-serif" font-size="13" lengthAdjust="spacing" textLength="21" x="316" y="301.3638">Fail</text></g><!--link ProcessingData to Running--><g id="link_ProcessingData_Running"><path d="M195.258,220.1469 C202.351,215.0849 208.916,209.1559 214,202.2969 C221.397,192.3169 224.0793,184.9384 225.7593,173.4834 " fill="none" id="ProcessingData-to-Running" style="stroke:#181818;stroke-width:1.0;"/><polygon fill="#181818" points="226.63,167.5469,221.3664,175.8712,225.9045,172.494,229.2817,177.0321,226.63,167.5469" style="stroke:#181818;stroke-width:1.0;"/></g><!--link CheckpointComplete to Running--><g id="link_CheckpointComplete_Running"><path d="M87.9384,322.9295 C69.5661,296.2477 47.2363,252.9189 67,220.2969 C92.928,177.4999 144.358,159.3444 183.12,150.8214 " fill="none" id="CheckpointComplete-to-Running" style="stroke:#181818;stroke-width:1.0;"/><polygon fill="#181818" points="188.98,149.5329,179.331,147.559,184.0967,150.6066,181.049,155.3723,188.98,149.5329" style="stroke:#181818;stroke-width:1.0;"/></g><!--link CheckpointFail to Running--><g id="link_CheckpointFail_Running"><path d="M349.132,323.1058 C365.922,288.506 389.204,224.7229 357,185.2969 C335.321,158.7559 302.5686,149.5537 273.1926,145.9187 " fill="none" id="CheckpointFail-to-Running" style="stroke:#181818;stroke-width:1.0;"/><polygon fill="#181818" points="267.238,145.1819,275.6787,150.2568,272.2002,145.7959,276.6611,142.3174,267.238,145.1819" style="stroke:#181818;stroke-width:1.0;"/></g><g id="elem_GMN17"><path d="M444.5,137 L444.5,191 L409.29,195 L444.5,199 L444.5,252.9297 A0,0 0 0 0 444.5,252.9297 L733.5,252.9297 A0,0 0 0 0 733.5,252.9297 L733.5,147 L723.5,137 L444.5,137 A0,0 0 0 0 444.5,137 " fill="#FEFFDD" style="stroke:#181818;stroke-width:0.5;"/><path d="M723.5,137 L723.5,147 L733.5,147 L723.5,137 " fill="#FEFFDD" style="stroke:#181818;stroke-width:0.5;"/><text fill="#000000" font-family="sans-serif" font-size="13" lengthAdjust="spacing" textLength="268" x="450.5" y="154.0669">The checkpointing feature of Apache Flink</text><text fill="#000000" font-family="sans-serif" font-size="13" lengthAdjust="spacing" textLength="245" x="450.5" y="169.1997">is especially useful for stateful stream</text><text fill="#000000" font-family="sans-serif" font-size="13" lengthAdjust="spacing" textLength="253" x="450.5" y="184.3325">processing applications. For example, a</text><text fill="#000000" font-family="sans-serif" font-size="13" lengthAdjust="spacing" textLength="253" x="450.5" y="199.4653">system that saves the state of a user's</text><text fill="#000000" font-family="sans-serif" font-size="13" lengthAdjust="spacing" textLength="242" x="450.5" y="214.5981">transactions can use checkpointing to</text><text fill="#000000" font-family="sans-serif" font-size="13" lengthAdjust="spacing" textLength="239" x="450.5" y="229.731">save the state on a regular basis and</text><text fill="#000000" font-family="sans-serif" font-size="13" lengthAdjust="spacing" textLength="219" x="450.5" y="244.8638">recover it in the event of a failure.</text></g><!--SRC=[VP71JiCm44Jl-OfHBqY8zWDoG495FIFA3N5Ot4rhrRKZxwQYGlmxwvIG1W6NnDuPlxLdHKaPitNvDLt0MZFJ0GyvEHRnSJi32GPvBEEz0fwlNp2Vt-AnYz5gDN8NiI4bqxvglRxSiTktoKVjNUvoErgBSsnmRvWQxVVUV1FCbBjCXpQmSerXzRz_HJxKA5_pJPjUF0WJo43-qr1m4_6ZgcAoUBFVxXIf-IL70ppjU1e96YRjCfSJTosPXbNmSMzUBs1fsNaAuOHE-farAKE60Ke_GBEEqO7QDdX7wbEK1LPcvpSgZxb16PMSHFa0tP52wCXYIpuJonMezCbNOaxD58LS3uAZM9GVTzTKY4QvX4I3PDvsWJ9UIUmL53Vco-pIaJEymiV-01yvwhbhOt5Q2ekAumObnqy0]--></g></svg>