<?xml version="1.0" encoding="us-ascii" standalone="no"?><svg xmlns="http://www.w3.org/2000/svg" xmlns:xlink="http://www.w3.org/1999/xlink" contentStyleType="text/css" height="388px" preserveAspectRatio="none" style="width:909px;height:388px;background:#FFFFFF;" version="1.1" viewBox="0 0 909 388" width="909px" zoomAndPan="magnify"><defs/><g><!--cluster Apache Flink--><g id="cluster_Apache Flink"><rect fill="none" height="91" rx="2.5" ry="2.5" style="stroke:#181818;stroke-width:1.0;" width="598" x="284.6325" y="290.5"/><text fill="#000000" font-family="sans-serif" font-size="14" font-weight="bold" lengthAdjust="spacing" textLength="102" x="532.6325" y="305.4951">Apache Flink</text></g><g id="elem_ProcessedLogic"><ellipse cx="379.6916" cy="345.6118" fill="#F1F1F1" rx="78.5591" ry="18.1118" style="stroke:#181818;stroke-width:0.5;"/><text fill="#000000" font-family="sans-serif" font-size="14" lengthAdjust="spacing" textLength="115" x="319.9653" y="349.1525">Processed Logic</text></g><g id="elem_SideEffectedLogic"><ellipse cx="582.8643" cy="345.7464" fill="#F1F1F1" rx="89.2318" ry="20.2464" style="stroke:#181818;stroke-width:0.5;"/><text fill="#000000" font-family="sans-serif" font-size="14" lengthAdjust="spacing" textLength="140" x="512.8643" y="348.593">Side Effected Logic</text></g><g id="elem_ProcessedState"><ellipse cx="786.506" cy="345.2747" fill="#F1F1F1" rx="79.3735" ry="18.2747" style="stroke:#181818;stroke-width:0.5;"/><text fill="#000000" font-family="sans-serif" font-size="14" lengthAdjust="spacing" textLength="117" x="726.1001" y="348.7248">Processed State</text></g><!--entity DataSource--><g id="elem_DataSource"><ellipse cx="480.6325" cy="14" fill="#F1F1F1" rx="8" ry="8" style="stroke:#181818;stroke-width:0.5;"/><path d="M480.6325,22 L480.6325,49 M467.6325,30 L493.6325,30 M480.6325,49 L467.6325,64 M480.6325,49 L493.6325,64 " fill="none" style="stroke:#181818;stroke-width:0.5;"/><text fill="#000000" font-family="sans-serif" font-size="14" lengthAdjust="spacing" textLength="87" x="437.1325" y="78.4951">Data Source</text></g><!--entity DataSync--><g id="elem_DataSync"><ellipse cx="115.6329" cy="316" fill="#F1F1F1" rx="8" ry="8" style="stroke:#181818;stroke-width:0.5;"/><path d="M115.6329,324 L115.6329,351 M102.6329,332 L128.6329,332 M115.6329,351 L102.6329,366 M115.6329,351 L128.6329,366 " fill="none" style="stroke:#181818;stroke-width:0.5;"/><text fill="#000000" font-family="sans-serif" font-size="14" lengthAdjust="spacing" textLength="72" x="79.6329" y="380.4951">Data Sync</text></g><g id="elem_Checkpointing"><ellipse cx="480.5324" cy="192.78" fill="#F1F1F1" rx="159.3999" ry="34.28" style="stroke:#181818;stroke-width:0.5;"/><text fill="#000000" font-family="sans-serif" font-size="14" lengthAdjust="spacing" textLength="290" x="335.5324" y="195.6267">Event Driven Application Checkpointing</text></g><!--link DataSource to Checkpointing--><g id="link_DataSource_Checkpointing"><path d="M480.6325,81.72 C480.6325,105.275 480.6325,129.481 480.6325,152.322 " fill="none" id="DataSource-to-Checkpointing" style="stroke:#181818;stroke-width:1.0;"/><polygon fill="#181818" points="480.6325,158.322,484.6325,149.322,480.6325,153.322,476.6325,149.322,480.6325,158.322" style="stroke:#181818;stroke-width:1.0;"/><text fill="#000000" font-family="sans-serif" font-size="13" lengthAdjust="spacing" textLength="67" x="481.6325" y="124.5669">Send Data</text></g><!--link Checkpointing to ProcessedLogic--><g id="link_Checkpointing_ProcessedLogic"><path d="M434.0125,226.239 C423.4845,235.332 413.1985,245.935 405.6325,257.5 C391.4795,279.135 385.7439,302.8314 382.7639,321.3266 " fill="none" id="Checkpointing-to-ProcessedLogic" style="stroke:#181818;stroke-width:1.0;"/><polygon fill="#181818" points="381.8095,327.2502,387.1902,319.0011,382.6049,322.3139,379.2921,317.7285,381.8095,327.2502" style="stroke:#181818;stroke-width:1.0;"/><text fill="#000000" font-family="sans-serif" font-size="13" lengthAdjust="spacing" textLength="103" x="406.6325" y="270.5669">Processed Logic</text></g><!--link Checkpointing to SideEffectedLogic--><g id="link_Checkpointing_SideEffectedLogic"><path d="M503.2695,227.401 C523.6945,257.537 549.6523,295.837 566.3423,320.4627 " fill="none" id="Checkpointing-to-SideEffectedLogic" style="stroke:#181818;stroke-width:1.0;"/><polygon fill="#181818" points="569.7085,325.4295,567.9704,315.7352,566.9033,321.2905,561.348,320.2235,569.7085,325.4295" style="stroke:#181818;stroke-width:1.0;"/><text fill="#000000" font-family="sans-serif" font-size="13" lengthAdjust="spacing" textLength="122" x="536.6325" y="270.5669">Side Effected Logic</text></g><!--link Checkpointing to ProcessedState--><g id="link_Checkpointing_ProcessedState"><path d="M577.1165,220.563 C606.9245,230.394 639.3405,242.795 667.6325,257.5 C705.5555,277.21 740.0678,304.3444 762.6618,323.529 " fill="none" id="Checkpointing-to-ProcessedState" style="stroke:#181818;stroke-width:1.0;"/><polygon fill="#181818" points="767.2355,327.4125,762.964,318.5381,763.4241,324.1762,757.786,324.6364,767.2355,327.4125" style="stroke:#181818;stroke-width:1.0;"/><text fill="#000000" font-family="sans-serif" font-size="13" lengthAdjust="spacing" textLength="104" x="696.6325" y="270.5669">Processed State</text></g><!--link ProcessedState to Checkpointing--><g id="link_ProcessedState_Checkpointing"><path d="M799.2835,327.218 C811.5705,308.1439 826.1425,277.501 809.6325,257.5 C786.3025,229.237 712.1981,214.1071 636.8991,205.3241 " fill="none" id="ProcessedState-to-Checkpointing" style="stroke:#181818;stroke-width:1.0;"/><polygon fill="#181818" points="630.9395,204.629,639.4155,209.6448,635.9058,205.2083,640.3423,201.6986,630.9395,204.629" style="stroke:#181818;stroke-width:1.0;"/><text fill="#000000" font-family="sans-serif" font-size="13" lengthAdjust="spacing" textLength="84" x="817.6325" y="270.5669">Update State</text></g><!--link Checkpointing to DataSync--><g id="link_Checkpointing_DataSync"><path d="M321.2415,194.984 C206.8115,199.478 66.3903,214.067 28.6329,257.5 C6,283.535 41.2125,308.6011 74.2324,325.5856 " fill="none" id="Checkpointing-to-DataSync" style="stroke:#181818;stroke-width:1.0;"/><polygon fill="#181818" points="79.5679,328.3301,73.3942,320.6564,75.1216,326.0431,69.735,327.7705,79.5679,328.3301" style="stroke:#181818;stroke-width:1.0;"/><text fill="#000000" font-family="sans-serif" font-size="13" lengthAdjust="spacing" textLength="137" x="29.6329" y="270.5669">Send Processed Data</text></g><!--link DataSync to Checkpointing--><g id="link_DataSync_Checkpointing"><path d="M151.8365,311.4376 C173.5705,293.167 202.5705,271.417 231.6325,257.5 C271.0655,238.617 310.9573,226.2614 352.3863,216.5044 " fill="none" id="DataSync-to-Checkpointing" style="stroke:#181818;stroke-width:1.0;"/><polygon fill="#181818" points="358.2265,215.129,348.5492,213.2987,353.3596,216.2752,350.3831,221.0856,358.2265,215.129" style="stroke:#181818;stroke-width:1.0;"/><text fill="#000000" font-family="sans-serif" font-size="13" lengthAdjust="spacing" textLength="156" x="232.6325" y="270.5669">Receive Processed Data</text></g><!--SRC=[VL91QiCm4BplAnRVyu4U2g59JZc4cZvWMMyS4IC9IIwKaBz7ah4TsQOdiJEpEymWuc0SLWSAXBNf7Kk5v37DmmZqhlZJFFDn0732WNJR2LPxItmJF7LAtojy06BlXSb7wk8CY_VIuDcqQhWnOHbwLzUg4JnUh_5qiP7m4LujpHPre22bHORW2J39Zx-Y0nwSYY_khUqKKr16uzTD-6wDqa7fDbyf482v6zpjFaiMFx0MtUH-e6IIjemSnOjUDbPMcPF5kf__p7BumcoeOo7O2lDZcqGD-hN5-0t6sBD3Bc2Yjqv_2qiiVx7p0W00]--></g></svg>