<?xml version="1.0" encoding="us-ascii" standalone="no"?><svg xmlns="http://www.w3.org/2000/svg" xmlns:xlink="http://www.w3.org/1999/xlink" contentStyleType="text/css" height="382px" preserveAspectRatio="none" style="width:872px;height:382px;background:#FFFFFF;" version="1.1" viewBox="0 0 872 382" width="872px" zoomAndPan="magnify"><defs/><g><!--cluster Flink App--><g id="cluster_Flink App"><rect fill="none" height="231.5" rx="2.5" ry="2.5" style="stroke:#181818;stroke-width:1.0;" width="512" x="341.5" y="7"/><text fill="#000000" font-family="sans-serif" font-size="14" font-weight="bold" lengthAdjust="spacing" textLength="74" x="560.5" y="21.9951">Flink App</text></g><g id="elem_StatefulComputations"><ellipse cx="487.2544" cy="70.2509" fill="#F1F1F1" rx="129.2544" ry="28.2509" style="stroke:#181818;stroke-width:0.5;"/><text fill="#000000" font-family="sans-serif" font-size="14" lengthAdjust="spacing" textLength="227" x="373.7544" y="73.0976">Perform Stateful Computations</text></g><g id="elem_StreamProcess"><ellipse cx="437.6963" cy="203.9393" fill="#F1F1F1" rx="80.1963" ry="18.4393" style="stroke:#181818;stroke-width:0.5;"/><text fill="#000000" font-family="sans-serif" font-size="14" lengthAdjust="spacing" textLength="119" x="376.6039" y="207.2979">Process Streams</text></g><g id="elem_Checkpoint"><ellipse cx="744.3318" cy="70.3664" fill="#F1F1F1" rx="92.3318" ry="20.8664" style="stroke:#181818;stroke-width:0.5;"/><text fill="#000000" font-family="sans-serif" font-size="14" lengthAdjust="spacing" textLength="147" x="670.8318" y="73.213">Perform Checkpoint</text></g><g id="elem_DistributedFileStorage"><ellipse cx="683.7353" cy="203.8471" fill="#F1F1F1" rx="64.7353" ry="15.3471" style="stroke:#181818;stroke-width:0.5;"/><text fill="#000000" font-family="sans-serif" font-size="14" lengthAdjust="spacing" textLength="78" x="641.7353" y="207.5946">Store Data</text></g><!--entity DataSource--><g id="elem_DataSource"><ellipse cx="278.5" cy="41" fill="#F1F1F1" rx="8" ry="8" style="stroke:#181818;stroke-width:0.5;"/><path d="M278.5,49 L278.5,76 M265.5,57 L291.5,57 M278.5,76 L265.5,91 M278.5,76 L291.5,91 " fill="none" style="stroke:#181818;stroke-width:0.5;"/><text fill="#000000" font-family="sans-serif" font-size="14" lengthAdjust="spacing" textLength="89" x="234" y="105.4951">Data-Source</text></g><g id="elem_GMN3"><path d="M6,58 L6,83.1328 A0,0 0 0 0 6,83.1328 L199,83.1328 A0,0 0 0 0 199,83.1328 L199,76 L233.834,70.5 L199,68 L199,68 L189,58 L6,58 A0,0 0 0 0 6,58 " fill="#FEFFDD" style="stroke:#181818;stroke-width:0.5;"/><path d="M189,58 L189,68 L199,68 L189,58 " fill="#FEFFDD" style="stroke:#181818;stroke-width:0.5;"/><text fill="#000000" font-family="sans-serif" font-size="13" lengthAdjust="spacing" textLength="172" x="12" y="75.0669">e.g. Kafka Message Source</text></g><!--entity DataSink--><g id="elem_DataSink"><ellipse cx="437.5" cy="310" fill="#F1F1F1" rx="8" ry="8" style="stroke:#181818;stroke-width:0.5;"/><path d="M437.5,318 L437.5,345 M424.5,326 L450.5,326 M437.5,345 L424.5,360 M437.5,345 L450.5,360 " fill="none" style="stroke:#181818;stroke-width:0.5;"/><text fill="#000000" font-family="sans-serif" font-size="14" lengthAdjust="spacing" textLength="71" x="402" y="374.4951">Data-Sink</text></g><g id="elem_GMN7"><path d="M508,327 L508,335.5 L473.438,339.5 L508,343.5 L508,352.1328 A0,0 0 0 0 508,352.1328 L597,352.1328 A0,0 0 0 0 597,352.1328 L597,337 L587,327 L508,327 A0,0 0 0 0 508,327 " fill="#FEFFDD" style="stroke:#181818;stroke-width:0.5;"/><path d="M587,327 L587,337 L597,337 L587,327 " fill="#FEFFDD" style="stroke:#181818;stroke-width:0.5;"/><text fill="#000000" font-family="sans-serif" font-size="13" lengthAdjust="spacing" textLength="68" x="514" y="344.0669">e.g. HBase</text></g><!--link DataSource to StreamProcess--><g id="link_DataSource_StreamProcess"><path d="M291.302,108.682 C298.399,124.804 308.641,142.845 322.5,155.5 C340.047,171.522 358.0754,180.5871 379.4014,187.9491 " fill="none" id="DataSource-to-StreamProcess" style="stroke:#181818;stroke-width:1.0;"/><polygon fill="#181818" points="385.073,189.907,377.8709,183.1891,380.3467,188.2754,375.2604,190.7512,385.073,189.907" style="stroke:#181818;stroke-width:1.0;"/><text fill="#000000" font-family="sans-serif" font-size="13" lengthAdjust="spacing" textLength="64" x="323.5" y="151.5669">send data</text></g><!--link StreamProcess to DataSink--><g id="link_StreamProcess_DataSink"><path d="M437.5,222.728 C437.5,242.658 437.5,269.584 437.5,295.2373 " fill="none" id="StreamProcess-to-DataSink" style="stroke:#181818;stroke-width:1.0;"/><polygon fill="#181818" points="437.5,301.2373,441.5,292.2373,437.5,296.2373,433.5,292.2373,437.5,301.2373" style="stroke:#181818;stroke-width:1.0;"/><text fill="#000000" font-family="sans-serif" font-size="13" lengthAdjust="spacing" textLength="64" x="438.5" y="267.5669">send data</text></g><!--link StatefulComputations to StreamProcess--><g id="link_StatefulComputations_StreamProcess"><path d="M437.78,96.858 C422.294,107.465 407.047,121.367 398.5,138.5 C390.205,155.128 398.8072,168.9744 411.9472,181.7324 " fill="none" id="StatefulComputations-to-StreamProcess" style="stroke:#181818;stroke-width:1.0;"/><polygon fill="#181818" points="416.252,185.912,412.5813,176.7728,412.6647,182.429,407.0085,182.5124,416.252,185.912" style="stroke:#181818;stroke-width:1.0;"/><text fill="#000000" font-family="sans-serif" font-size="13" lengthAdjust="spacing" textLength="98" x="399.5" y="151.5669">process events</text></g><!--link Checkpoint to StreamProcess--><g id="link_Checkpoint_StreamProcess"><path d="M702.777,89.372 C642.282,115.284 536.7113,160.5035 479.3793,185.0615 " fill="none" id="Checkpoint-to-StreamProcess" style="stroke:#181818;stroke-width:1.0;"/><polygon fill="#181818" points="473.864,187.424,483.712,187.5572,478.4601,185.4553,480.562,180.2034,473.864,187.424" style="stroke:#181818;stroke-width:1.0;"/><text fill="#000000" font-family="sans-serif" font-size="13" lengthAdjust="spacing" textLength="100" x="583.5" y="151.5669">maintains state</text></g><!--link Checkpoint to DistributedFileStorage--><g id="link_Checkpoint_DistributedFileStorage"><path d="M735.235,91.472 C722.837,118.2 703.6689,159.5211 692.7329,183.0961 " fill="none" id="Checkpoint-to-DistributedFileStorage" style="stroke:#181818;stroke-width:1.0;"/><polygon fill="#181818" points="690.208,188.539,697.6239,182.0579,692.312,184.0033,690.3667,178.6914,690.208,188.539" style="stroke:#181818;stroke-width:1.0;"/><text fill="#000000" font-family="sans-serif" font-size="13" lengthAdjust="spacing" textLength="152" x="712.5" y="151.5669">provides fault tolerance</text></g><!--SRC=[RL3BQiCm4BphAmRVdG_meT2cX48f1Fm5Mtdj2CkIaTQvbFvxvKUmtVWWsDaPpUuiQV41sJi9vQKVWkOC537Y6IhdXM6v5lXwqo_0f-Q4JwfRmXV7I0rZ-K9RK-FQrJA1sJ2OvhOwflRYz_56aPKAh8LSOndPnIOMhtsVuKS1GsIT9CYk76eVEfH2mlLWSVPTFoHWl8lJn0Up9NOEmUkqUD85fkxnPwmNvcZS-SQwxRrnCkbNk1MNAJzFqURe9aemtuDmTJ6MHpPTI_qgfTQ38izVzkCBH7OLgYHHEsAIheVRgfuJF_kYGBzKV6SdKQqfZhReA17fHSJH_x_wEDqqusugZgXfi0BnbWCvpNy0]--></g></svg>