<?xml version="1.0" encoding="us-ascii" standalone="no"?><svg xmlns="http://www.w3.org/2000/svg" xmlns:xlink="http://www.w3.org/1999/xlink" contentStyleType="text/css" height="1231px" preserveAspectRatio="none" style="width:1667px;height:1231px;background:#FFFFFF;" version="1.1" viewBox="0 0 1667 1231" width="1667px" zoomAndPan="magnify"><defs/><g><text fill="#000000" font-family="sans-serif" font-size="14" font-weight="bold" lengthAdjust="spacing" textLength="444" x="608.75" y="27.9951">Apache Flink Checkpointing Process Sequence Diagram</text><rect fill="#ADD8E6" height="1182.6406" style="stroke:#181818;stroke-width:0.5;" width="75" x="1" y="43.2969"/><text fill="#000000" font-family="sans-serif" font-size="13" font-weight="bold" lengthAdjust="spacing" textLength="33" x="22" y="55.3638">flink</text><rect fill="#90EE90" height="1182.6406" style="stroke:#181818;stroke-width:0.5;" width="769" x="83" y="43.2969"/><text fill="#000000" font-family="sans-serif" font-size="13" font-weight="bold" lengthAdjust="spacing" textLength="106" x="414.5" y="55.3638">Checkpoint.ss</text><rect fill="#FFFFE0" height="1182.6406" style="stroke:#181818;stroke-width:0.5;" width="807.5" x="854" y="43.2969"/><text fill="#000000" font-family="sans-serif" font-size="13" font-weight="bold" lengthAdjust="spacing" textLength="84" x="1215.75" y="55.3638">Runtime.ss</text><line style="stroke:#181818;stroke-width:0.5;stroke-dasharray:5.0,5.0;" x1="38" x2="38" y1="93.7266" y2="1191.6406"/><line style="stroke:#181818;stroke-width:0.5;stroke-dasharray:5.0,5.0;" x1="188" x2="188" y1="93.7266" y2="1191.6406"/><line style="stroke:#181818;stroke-width:0.5;stroke-dasharray:5.0,5.0;" x1="393" x2="393" y1="93.7266" y2="1191.6406"/><line style="stroke:#181818;stroke-width:0.5;stroke-dasharray:5.0,5.0;" x1="601" x2="601" y1="93.7266" y2="1191.6406"/><line style="stroke:#181818;stroke-width:0.5;stroke-dasharray:5.0,5.0;" x1="802" x2="802" y1="93.7266" y2="1191.6406"/><line style="stroke:#181818;stroke-width:0.5;stroke-dasharray:5.0,5.0;" x1="910" x2="910" y1="93.7266" y2="1191.6406"/><line style="stroke:#181818;stroke-width:0.5;stroke-dasharray:5.0,5.0;" x1="1047" x2="1047" y1="93.7266" y2="1191.6406"/><line style="stroke:#181818;stroke-width:0.5;stroke-dasharray:5.0,5.0;" x1="1234" x2="1234" y1="93.7266" y2="1191.6406"/><line style="stroke:#181818;stroke-width:0.5;stroke-dasharray:5.0,5.0;" x1="1359" x2="1359" y1="93.7266" y2="1191.6406"/><line style="stroke:#181818;stroke-width:0.5;stroke-dasharray:5.0,5.0;" x1="1501.5" x2="1501.5" y1="93.7266" y2="1191.6406"/><line style="stroke:#181818;stroke-width:0.5;stroke-dasharray:5.0,5.0;" x1="1620.5" x2="1620.5" y1="93.7266" y2="1191.6406"/><rect fill="#E2E2F0" height="30.2969" rx="2.5" ry="2.5" style="stroke:#181818;stroke-width:0.5;" width="67" x="5" y="62.4297"/><text fill="#000000" font-family="sans-serif" font-size="14" lengthAdjust="spacing" textLength="53" x="12" y="82.4248">Core.ss</text><rect fill="#E2E2F0" height="30.2969" rx="2.5" ry="2.5" style="stroke:#181818;stroke-width:0.5;" width="67" x="5" y="1190.6406"/><text fill="#000000" font-family="sans-serif" font-size="14" lengthAdjust="spacing" textLength="53" x="12" y="1210.6357">Core.ss</text><rect fill="#E2E2F0" height="30.2969" rx="2.5" ry="2.5" style="stroke:#181818;stroke-width:0.5;" width="203" x="87" y="62.4297"/><text fill="#000000" font-family="sans-serif" font-size="14" lengthAdjust="spacing" textLength="189" x="94" y="82.4248">CheckpointCoordinator.ss</text><rect fill="#E2E2F0" height="30.2969" rx="2.5" ry="2.5" style="stroke:#181818;stroke-width:0.5;" width="203" x="87" y="1190.6406"/><text fill="#000000" font-family="sans-serif" font-size="14" lengthAdjust="spacing" textLength="189" x="94" y="1210.6357">CheckpointCoordinator.ss</text><rect fill="#E2E2F0" height="30.2969" rx="2.5" ry="2.5" style="stroke:#181818;stroke-width:0.5;" width="103" x="342" y="62.4297"/><text fill="#000000" font-family="sans-serif" font-size="14" lengthAdjust="spacing" textLength="89" x="349" y="82.4248">MetaData.ss</text><rect fill="#E2E2F0" height="30.2969" rx="2.5" ry="2.5" style="stroke:#181818;stroke-width:0.5;" width="103" x="342" y="1190.6406"/><text fill="#000000" font-family="sans-serif" font-size="14" lengthAdjust="spacing" textLength="89" x="349" y="1210.6357">MetaData.ss</text><rect fill="#E2E2F0" height="30.2969" rx="2.5" ry="2.5" style="stroke:#181818;stroke-width:0.5;" width="77" x="563" y="62.4297"/><text fill="#000000" font-family="sans-serif" font-size="14" lengthAdjust="spacing" textLength="63" x="570" y="82.4248">Hooks.ss</text><rect fill="#E2E2F0" height="30.2969" rx="2.5" ry="2.5" style="stroke:#181818;stroke-width:0.5;" width="77" x="563" y="1190.6406"/><text fill="#000000" font-family="sans-serif" font-size="14" lengthAdjust="spacing" textLength="63" x="570" y="1210.6357">Hooks.ss</text><rect fill="#E2E2F0" height="30.2969" rx="2.5" ry="2.5" style="stroke:#181818;stroke-width:0.5;" width="91" x="757" y="62.4297"/><text fill="#000000" font-family="sans-serif" font-size="14" lengthAdjust="spacing" textLength="77" x="764" y="82.4248">Channel.ss</text><rect fill="#E2E2F0" height="30.2969" rx="2.5" ry="2.5" style="stroke:#181818;stroke-width:0.5;" width="91" x="757" y="1190.6406"/><text fill="#000000" font-family="sans-serif" font-size="14" lengthAdjust="spacing" textLength="77" x="764" y="1210.6357">Channel.ss</text><rect fill="#E2E2F0" height="30.2969" rx="2.5" ry="2.5" style="stroke:#181818;stroke-width:0.5;" width="105" x="858" y="62.4297"/><text fill="#000000" font-family="sans-serif" font-size="14" lengthAdjust="spacing" textLength="91" x="865" y="82.4248">JobMaster.ss</text><rect fill="#E2E2F0" height="30.2969" rx="2.5" ry="2.5" style="stroke:#181818;stroke-width:0.5;" width="105" x="858" y="1190.6406"/><text fill="#000000" font-family="sans-serif" font-size="14" lengthAdjust="spacing" textLength="91" x="865" y="1210.6357">JobMaster.ss</text><rect fill="#E2E2F0" height="30.2969" rx="2.5" ry="2.5" style="stroke:#181818;stroke-width:0.5;" width="148" x="973" y="62.4297"/><text fill="#000000" font-family="sans-serif" font-size="14" lengthAdjust="spacing" textLength="134" x="980" y="82.4248">ExecutionGraph.ss</text><rect fill="#E2E2F0" height="30.2969" rx="2.5" ry="2.5" style="stroke:#181818;stroke-width:0.5;" width="148" x="973" y="1190.6406"/><text fill="#000000" font-family="sans-serif" font-size="14" lengthAdjust="spacing" textLength="134" x="980" y="1210.6357">ExecutionGraph.ss</text><rect fill="#E2E2F0" height="30.2969" rx="2.5" ry="2.5" style="stroke:#181818;stroke-width:0.5;" width="100" x="1184" y="62.4297"/><text fill="#000000" font-family="sans-serif" font-size="14" lengthAdjust="spacing" textLength="86" x="1191" y="82.4248">JobGraph.ss</text><rect fill="#E2E2F0" height="30.2969" rx="2.5" ry="2.5" style="stroke:#181818;stroke-width:0.5;" width="100" x="1184" y="1190.6406"/><text fill="#000000" font-family="sans-serif" font-size="14" lengthAdjust="spacing" textLength="86" x="1191" y="1210.6357">JobGraph.ss</text><rect fill="#E2E2F0" height="30.2969" rx="2.5" ry="2.5" style="stroke:#181818;stroke-width:0.5;" width="130" x="1294" y="62.4297"/><text fill="#000000" font-family="sans-serif" font-size="14" lengthAdjust="spacing" textLength="116" x="1301" y="82.4248">TaskExecutor.ss</text><rect fill="#E2E2F0" height="30.2969" rx="2.5" ry="2.5" style="stroke:#181818;stroke-width:0.5;" width="130" x="1294" y="1190.6406"/><text fill="#000000" font-family="sans-serif" font-size="14" lengthAdjust="spacing" textLength="116" x="1301" y="1210.6357">TaskExecutor.ss</text><rect fill="#E2E2F0" height="30.2969" rx="2.5" ry="2.5" style="stroke:#181818;stroke-width:0.5;" width="127" x="1438.5" y="62.4297"/><text fill="#000000" font-family="sans-serif" font-size="14" lengthAdjust="spacing" textLength="113" x="1445.5" y="82.4248">TaskManager.ss</text><rect fill="#E2E2F0" height="30.2969" rx="2.5" ry="2.5" style="stroke:#181818;stroke-width:0.5;" width="127" x="1438.5" y="1190.6406"/><text fill="#000000" font-family="sans-serif" font-size="14" lengthAdjust="spacing" textLength="113" x="1445.5" y="1210.6357">TaskManager.ss</text><rect fill="#E2E2F0" height="30.2969" rx="2.5" ry="2.5" style="stroke:#181818;stroke-width:0.5;" width="73" x="1584.5" y="62.4297"/><text fill="#000000" font-family="sans-serif" font-size="14" lengthAdjust="spacing" textLength="59" x="1591.5" y="82.4248">State.ss</text><rect fill="#E2E2F0" height="30.2969" rx="2.5" ry="2.5" style="stroke:#181818;stroke-width:0.5;" width="73" x="1584.5" y="1190.6406"/><text fill="#000000" font-family="sans-serif" font-size="14" lengthAdjust="spacing" textLength="59" x="1591.5" y="1210.6357">State.ss</text><polygon fill="#181818" points="176.5,120.8594,186.5,124.8594,176.5,128.8594,180.5,124.8594" style="stroke:#181818;stroke-width:1.0;"/><line style="stroke:#181818;stroke-width:1.0;" x1="38.5" x2="182.5" y1="124.8594" y2="124.8594"/><text fill="#000000" font-family="sans-serif" font-size="13" lengthAdjust="spacing" textLength="126" x="45.5" y="119.7935">TriggerCheckpoint()</text><polygon fill="#181818" points="589.5,149.9922,599.5,153.9922,589.5,157.9922,593.5,153.9922" style="stroke:#181818;stroke-width:1.0;"/><line style="stroke:#181818;stroke-width:1.0;" x1="188.5" x2="595.5" y1="153.9922" y2="153.9922"/><text fill="#000000" font-family="sans-serif" font-size="13" lengthAdjust="spacing" textLength="193" x="195.5" y="148.9263">ExecutePreCheckpointHooks()</text><polygon fill="#181818" points="1609,179.125,1619,183.125,1609,187.125,1613,183.125" style="stroke:#181818;stroke-width:1.0;"/><line style="stroke:#181818;stroke-width:1.0;" x1="601.5" x2="1615" y1="183.125" y2="183.125"/><text fill="#000000" font-family="sans-serif" font-size="13" lengthAdjust="spacing" textLength="120" x="608.5" y="178.0591">AccessStateData()</text><polygon fill="#181818" points="404.5,208.2578,394.5,212.2578,404.5,216.2578,400.5,212.2578" style="stroke:#181818;stroke-width:1.0;"/><line style="stroke:#181818;stroke-width:1.0;" x1="398.5" x2="600.5" y1="212.2578" y2="212.2578"/><text fill="#000000" font-family="sans-serif" font-size="13" lengthAdjust="spacing" textLength="184" x="410.5" y="207.1919">CollectCheckpointMetadata()</text><polygon fill="#181818" points="589.5,237.3906,599.5,241.3906,589.5,245.3906,593.5,241.3906" style="stroke:#181818;stroke-width:1.0;"/><line style="stroke:#181818;stroke-width:1.0;stroke-dasharray:2.0,2.0;" x1="393.5" x2="595.5" y1="241.3906" y2="241.3906"/><text fill="#000000" font-family="sans-serif" font-size="13" lengthAdjust="spacing" textLength="60" x="400.5" y="236.3247">Metadata</text><polygon fill="#181818" points="790.5,266.5234,800.5,270.5234,790.5,274.5234,794.5,270.5234" style="stroke:#181818;stroke-width:1.0;"/><line style="stroke:#181818;stroke-width:1.0;" x1="601.5" x2="796.5" y1="270.5234" y2="270.5234"/><text fill="#000000" font-family="sans-serif" font-size="13" lengthAdjust="spacing" textLength="126" x="608.5" y="265.4575">StartDataTransfer()</text><polygon fill="#181818" points="612.5,295.6563,602.5,299.6563,612.5,303.6563,608.5,299.6563" style="stroke:#181818;stroke-width:1.0;"/><line style="stroke:#181818;stroke-width:1.0;stroke-dasharray:2.0,2.0;" x1="606.5" x2="801.5" y1="299.6563" y2="299.6563"/><text fill="#000000" font-family="sans-serif" font-size="13" lengthAdjust="spacing" textLength="157" x="618.5" y="294.5903">DataTransferComplete()</text><polygon fill="#181818" points="404.5,324.7891,394.5,328.7891,404.5,332.7891,400.5,328.7891" style="stroke:#181818;stroke-width:1.0;"/><line style="stroke:#181818;stroke-width:1.0;" x1="398.5" x2="600.5" y1="328.7891" y2="328.7891"/><text fill="#000000" font-family="sans-serif" font-size="13" lengthAdjust="spacing" textLength="143" x="410.5" y="323.7231">CompleteCheckpoint()</text><polygon fill="#181818" points="589.5,353.9219,599.5,357.9219,589.5,361.9219,593.5,357.9219" style="stroke:#181818;stroke-width:1.0;"/><line style="stroke:#181818;stroke-width:1.0;stroke-dasharray:2.0,2.0;" x1="393.5" x2="595.5" y1="357.9219" y2="357.9219"/><text fill="#000000" font-family="sans-serif" font-size="13" lengthAdjust="spacing" textLength="60" x="400.5" y="352.856">Metadata</text><polygon fill="#181818" points="1609,383.0547,1619,387.0547,1609,391.0547,1613,387.0547" style="stroke:#181818;stroke-width:1.0;"/><line style="stroke:#181818;stroke-width:1.0;" x1="601.5" x2="1615" y1="387.0547" y2="387.0547"/><text fill="#000000" font-family="sans-serif" font-size="13" lengthAdjust="spacing" textLength="200" x="608.5" y="381.9888">ExecutePostCheckpointHooks()</text><polygon fill="#181818" points="612.5,412.1875,602.5,416.1875,612.5,420.1875,608.5,416.1875" style="stroke:#181818;stroke-width:1.0;"/><line style="stroke:#181818;stroke-width:1.0;stroke-dasharray:2.0,2.0;" x1="606.5" x2="1620" y1="416.1875" y2="416.1875"/><text fill="#000000" font-family="sans-serif" font-size="13" lengthAdjust="spacing" textLength="153" x="618.5" y="411.1216">Post-checkpoint Actions</text><polygon fill="#181818" points="381.5,441.3203,391.5,445.3203,381.5,449.3203,385.5,445.3203" style="stroke:#181818;stroke-width:1.0;"/><line style="stroke:#181818;stroke-width:1.0;" x1="188.5" x2="387.5" y1="445.3203" y2="445.3203"/><text fill="#000000" font-family="sans-serif" font-size="13" lengthAdjust="spacing" textLength="126" x="195.5" y="440.2544">TriggerCheckpoint()</text><polygon fill="#181818" points="589.5,470.4531,599.5,474.4531,589.5,478.4531,593.5,474.4531" style="stroke:#181818;stroke-width:1.0;"/><line style="stroke:#181818;stroke-width:1.0;" x1="188.5" x2="595.5" y1="474.4531" y2="474.4531"/><text fill="#000000" font-family="sans-serif" font-size="13" lengthAdjust="spacing" textLength="164" x="195.5" y="469.3872">NotifyCheckpointTrigger()</text><polygon fill="#181818" points="790.5,499.5859,800.5,503.5859,790.5,507.5859,794.5,503.5859" style="stroke:#181818;stroke-width:1.0;"/><line style="stroke:#181818;stroke-width:1.0;" x1="601.5" x2="796.5" y1="503.5859" y2="503.5859"/><text fill="#000000" font-family="sans-serif" font-size="13" lengthAdjust="spacing" textLength="126" x="608.5" y="498.52">TriggerCheckpoint()</text><polygon fill="#181818" points="612.5,528.7188,602.5,532.7188,612.5,536.7188,608.5,532.7188" style="stroke:#181818;stroke-width:1.0;"/><line style="stroke:#181818;stroke-width:1.0;stroke-dasharray:2.0,2.0;" x1="606.5" x2="801.5" y1="532.7188" y2="532.7188"/><text fill="#000000" font-family="sans-serif" font-size="13" lengthAdjust="spacing" textLength="177" x="618.5" y="527.6528">ConfirmCheckpointTrigger()</text><polygon fill="#181818" points="199.5,557.8516,189.5,561.8516,199.5,565.8516,195.5,561.8516" style="stroke:#181818;stroke-width:1.0;"/><line style="stroke:#181818;stroke-width:1.0;stroke-dasharray:2.0,2.0;" x1="193.5" x2="600.5" y1="561.8516" y2="561.8516"/><text fill="#000000" font-family="sans-serif" font-size="13" lengthAdjust="spacing" textLength="226" x="205.5" y="556.7856">NotifyCheckpointTriggerComplete()</text><polygon fill="#181818" points="790.5,586.9844,800.5,590.9844,790.5,594.9844,794.5,590.9844" style="stroke:#181818;stroke-width:1.0;"/><line style="stroke:#181818;stroke-width:1.0;" x1="188.5" x2="796.5" y1="590.9844" y2="590.9844"/><text fill="#000000" font-family="sans-serif" font-size="13" lengthAdjust="spacing" textLength="126" x="195.5" y="585.9185">StartDataTransfer()</text><polygon fill="#181818" points="199.5,616.1172,189.5,620.1172,199.5,624.1172,195.5,620.1172" style="stroke:#181818;stroke-width:1.0;"/><line style="stroke:#181818;stroke-width:1.0;" x1="193.5" x2="801.5" y1="620.1172" y2="620.1172"/><text fill="#000000" font-family="sans-serif" font-size="13" lengthAdjust="spacing" textLength="157" x="205.5" y="615.0513">DataTransferComplete()</text><polygon fill="#181818" points="381.5,645.25,391.5,649.25,381.5,653.25,385.5,649.25" style="stroke:#181818;stroke-width:1.0;"/><line style="stroke:#181818;stroke-width:1.0;" x1="188.5" x2="387.5" y1="649.25" y2="649.25"/><text fill="#000000" font-family="sans-serif" font-size="13" lengthAdjust="spacing" textLength="181" x="195.5" y="644.1841">NotifyCheckpointComplete()</text><polygon fill="#181818" points="589.5,674.3828,599.5,678.3828,589.5,682.3828,593.5,678.3828" style="stroke:#181818;stroke-width:1.0;"/><line style="stroke:#181818;stroke-width:1.0;" x1="188.5" x2="595.5" y1="678.3828" y2="678.3828"/><text fill="#000000" font-family="sans-serif" font-size="13" lengthAdjust="spacing" textLength="181" x="195.5" y="673.3169">NotifyCheckpointComplete()</text><polygon fill="#181818" points="790.5,703.5156,800.5,707.5156,790.5,711.5156,794.5,707.5156" style="stroke:#181818;stroke-width:1.0;"/><line style="stroke:#181818;stroke-width:1.0;stroke-dasharray:2.0,2.0;" x1="601.5" x2="796.5" y1="707.5156" y2="707.5156"/><text fill="#000000" font-family="sans-serif" font-size="13" lengthAdjust="spacing" textLength="143" x="608.5" y="702.4497">CompleteCheckpoint()</text><polygon fill="#181818" points="199.5,732.6484,189.5,736.6484,199.5,740.6484,195.5,736.6484" style="stroke:#181818;stroke-width:1.0;"/><line style="stroke:#181818;stroke-width:1.0;stroke-dasharray:2.0,2.0;" x1="193.5" x2="801.5" y1="736.6484" y2="736.6484"/><text fill="#000000" font-family="sans-serif" font-size="13" lengthAdjust="spacing" textLength="205" x="205.5" y="731.5825">ConfirmCheckpointCompletion()</text><polygon fill="#181818" points="199.5,761.7813,189.5,765.7813,199.5,769.7813,195.5,765.7813" style="stroke:#181818;stroke-width:1.0;"/><line style="stroke:#181818;stroke-width:1.0;" x1="193.5" x2="909.5" y1="765.7813" y2="765.7813"/><text fill="#000000" font-family="sans-serif" font-size="13" lengthAdjust="spacing" textLength="126" x="205.5" y="760.7153">TriggerCheckpoint()</text><polygon fill="#181818" points="1222,790.9141,1232,794.9141,1222,798.9141,1226,794.9141" style="stroke:#181818;stroke-width:1.0;"/><line style="stroke:#181818;stroke-width:1.0;" x1="188.5" x2="1228" y1="794.9141" y2="794.9141"/><text fill="#000000" font-family="sans-serif" font-size="13" lengthAdjust="spacing" textLength="131" x="195.5" y="789.8481">DefineJobStructure()</text><polygon fill="#181818" points="1058,820.0469,1048,824.0469,1058,828.0469,1054,824.0469" style="stroke:#181818;stroke-width:1.0;"/><line style="stroke:#181818;stroke-width:1.0;" x1="1052" x2="1233" y1="824.0469" y2="824.0469"/><text fill="#000000" font-family="sans-serif" font-size="13" lengthAdjust="spacing" textLength="163" x="1064" y="818.981">InitializeExecutionGraph()</text><polygon fill="#181818" points="199.5,849.1797,189.5,853.1797,199.5,857.1797,195.5,853.1797" style="stroke:#181818;stroke-width:1.0;"/><line style="stroke:#181818;stroke-width:1.0;" x1="193.5" x2="1046" y1="853.1797" y2="853.1797"/><text fill="#000000" font-family="sans-serif" font-size="13" lengthAdjust="spacing" textLength="165" x="205.5" y="848.1138">RegisterExecutionGraph()</text><polygon fill="#181818" points="1347,878.3125,1357,882.3125,1347,886.3125,1351,882.3125" style="stroke:#181818;stroke-width:1.0;"/><line style="stroke:#181818;stroke-width:1.0;" x1="188.5" x2="1353" y1="882.3125" y2="882.3125"/><text fill="#000000" font-family="sans-serif" font-size="13" lengthAdjust="spacing" textLength="133" x="195.5" y="877.2466">ExecuteCheckpoint()</text><polygon fill="#181818" points="1490,907.4453,1500,911.4453,1490,915.4453,1494,911.4453" style="stroke:#181818;stroke-width:1.0;"/><line style="stroke:#181818;stroke-width:1.0;" x1="1359" x2="1496" y1="911.4453" y2="911.4453"/><text fill="#000000" font-family="sans-serif" font-size="13" lengthAdjust="spacing" textLength="119" x="1366" y="906.3794">NotifyCheckpoint()</text><polygon fill="#181818" points="1609,936.5781,1619,940.5781,1609,944.5781,1613,940.5781" style="stroke:#181818;stroke-width:1.0;"/><line style="stroke:#181818;stroke-width:1.0;" x1="1502" x2="1615" y1="940.5781" y2="940.5781"/><text fill="#000000" font-family="sans-serif" font-size="13" lengthAdjust="spacing" textLength="95" x="1509" y="935.5122">CaptureState()</text><polygon fill="#181818" points="813.5,965.7109,803.5,969.7109,813.5,973.7109,809.5,969.7109" style="stroke:#181818;stroke-width:1.0;"/><line style="stroke:#181818;stroke-width:1.0;" x1="807.5" x2="1620" y1="969.7109" y2="969.7109"/><text fill="#000000" font-family="sans-serif" font-size="13" lengthAdjust="spacing" textLength="160" x="819.5" y="964.645">StartStateDataTransfer()</text><polygon fill="#181818" points="199.5,994.8438,189.5,998.8438,199.5,1002.8438,195.5,998.8438" style="stroke:#181818;stroke-width:1.0;"/><line style="stroke:#181818;stroke-width:1.0;" x1="193.5" x2="801.5" y1="998.8438" y2="998.8438"/><text fill="#000000" font-family="sans-serif" font-size="13" lengthAdjust="spacing" textLength="157" x="205.5" y="993.7778">DataTransferComplete()</text><polygon fill="#181818" points="1609,1023.9766,1619,1027.9766,1609,1031.9766,1613,1027.9766" style="stroke:#181818;stroke-width:1.0;"/><line style="stroke:#181818;stroke-width:1.0;" x1="188.5" x2="1615" y1="1027.9766" y2="1027.9766"/><text fill="#000000" font-family="sans-serif" font-size="13" lengthAdjust="spacing" textLength="181" x="195.5" y="1022.9106">NotifyCheckpointComplete()</text><polygon fill="#181818" points="1609,1053.1094,1619,1057.1094,1609,1061.1094,1613,1057.1094" style="stroke:#181818;stroke-width:1.0;"/><line style="stroke:#181818;stroke-width:1.0;" x1="1502" x2="1615" y1="1057.1094" y2="1057.1094"/><text fill="#000000" font-family="sans-serif" font-size="13" lengthAdjust="spacing" textLength="94" x="1509" y="1052.0435">RestoreState()</text><polygon fill="#181818" points="199.5,1082.2422,189.5,1086.2422,199.5,1090.2422,195.5,1086.2422" style="stroke:#181818;stroke-width:1.0;"/><line style="stroke:#181818;stroke-width:1.0;" x1="193.5" x2="1620" y1="1086.2422" y2="1086.2422"/><text fill="#000000" font-family="sans-serif" font-size="13" lengthAdjust="spacing" textLength="201" x="205.5" y="1081.1763">StateRestorationConfirmation()</text><polygon fill="#181818" points="589.5,1111.375,599.5,1115.375,589.5,1119.375,593.5,1115.375" style="stroke:#181818;stroke-width:1.0;"/><line style="stroke:#181818;stroke-width:1.0;" x1="188.5" x2="595.5" y1="1115.375" y2="1115.375"/><text fill="#000000" font-family="sans-serif" font-size="13" lengthAdjust="spacing" textLength="181" x="195.5" y="1110.3091">NotifyCheckpointComplete()</text><polygon fill="#181818" points="790.5,1140.5078,800.5,1144.5078,790.5,1148.5078,794.5,1144.5078" style="stroke:#181818;stroke-width:1.0;"/><line style="stroke:#181818;stroke-width:1.0;" x1="601.5" x2="796.5" y1="1144.5078" y2="1144.5078"/><text fill="#000000" font-family="sans-serif" font-size="13" lengthAdjust="spacing" textLength="143" x="608.5" y="1139.4419">CompleteCheckpoint()</text><polygon fill="#181818" points="199.5,1169.6406,189.5,1173.6406,199.5,1177.6406,195.5,1173.6406" style="stroke:#181818;stroke-width:1.0;"/><line style="stroke:#181818;stroke-width:1.0;" x1="193.5" x2="801.5" y1="1173.6406" y2="1173.6406"/><text fill="#000000" font-family="sans-serif" font-size="13" lengthAdjust="spacing" textLength="205" x="205.5" y="1168.5747">ConfirmCheckpointCompletion()</text><!--SRC=[jLJBRjim4BphAuZaqXxK3z31GAkqQOgw26nVUjp8AucmJAeaXQRz-f9wcAGe2d6G7gMTMStEZlP0LOCP-TX2KIFvqb1s8dcDnQdbb2dAAl8eU85IaZt-wf0LIEueL0BEIVB4dybDQIWtvFOxhMhrgUam8QG5eMX1Ms2Av5pW1oaJP4UY2IFBVaBN9lQzG6Hp-WMOSowEb87YmlJpOLjKS0SAmifNpayoV9tNm1WseR9TfyS-eoFh9pOD_ptZV-DFMv0A5xHyViQYKvIpUm5j7TOrDL8vW3mDxAKPJNKB3AgbZ-uLAD_dqVXq4xCm8mT1AztD0jwzJsBeT3CvcOqJugD0Y-whcZ-XqiqaIQUhC0dgdysIF9IpkKo7fMcmKBQhgHu7YWDCNJ4JnEbfbviPOuGol8C09aiK_OnJtUlaed9-RXjKkAPrG7ZkNI7IsZFPoQKA_PnWNZi3JOiBLXjiyYPNbkT9V-tUVt15opyMEVRnF7AzN_xEelSvPoKLvzNUQr6EI7FM61_mYhYiA8YavuKhcUj_KOVuPfRYwm-w65zlEV5HWsMDpNG6TPF4lOrlTtwSiwdDnf8orA_sIdI5weIPr46ac-0AP-I1KKMXeN_HBsfgW5xJlSEAcl62Bd7niyj- -UUzsMUWWMKlVhZbaMCXxbN9eJM-z2_SEnB6_NAO_t_chRoLnCPdsg7KdHPdYadiCGCFpAx6xC8OrhVwkQxwjrxxQ_q3]--></g></svg>